<?xml version="1.0" standalone="no"?><!DOCTYPE svg PUBLIC "-//W3C//DTD SVG 1.1//EN" "http://www.w3.org/Graphics/SVG/1.1/DTD/svg11.dtd"><svg t="1578168043856" class="icon" viewBox="0 0 1024 1024" version="1.1" xmlns="http://www.w3.org/2000/svg" p-id="989" xmlns:xlink="http://www.w3.org/1999/xlink" width="200" height="200"><defs><style type="text/css"></style></defs><path d="M511.998976 85.389312c31.413248 0 56.882176 25.468928 56.882176 56.881152l0 739.460096c0 31.413248-25.468928 56.882176-56.882176 56.882176-31.412224 0-56.881152-25.468928-56.881152-56.882176l0-739.460096C455.117824 110.857216 480.586752 85.389312 511.998976 85.389312zM938.610688 512c0 31.413248-25.468928 56.882176-56.882176 56.882176l-739.460096 0c-31.412224 0-56.881152-25.468928-56.881152-56.882176 0-31.412224 25.468928-56.881152 56.881152-56.881152l739.460096 0C913.14176 455.118848 938.610688 480.587776 938.610688 512z" p-id="990" fill="#42c02e"></path></svg>