<?xml version="1.0" standalone="no"?><!DOCTYPE svg PUBLIC "-//W3C//DTD SVG 1.1//EN" "http://www.w3.org/Graphics/SVG/1.1/DTD/svg11.dtd"><svg t="1578120874684" class="icon" viewBox="0 0 1024 1024" version="1.1" xmlns="http://www.w3.org/2000/svg" p-id="729" xmlns:xlink="http://www.w3.org/1999/xlink" width="200" height="200"><defs><style type="text/css"></style></defs><path d="M510.12576961 647.97168533c56.3510304-27.92727253 112.82618133-82.6150784 168.85449707-164.36130987l-148.7965088-119.2556608 186.92654507-12.288c5.0889696-38.17968533-8.4898912-64.81609707-18.99054507-91.37803626-19.1394912-48.35762453-44.60916373-101.1091392-71.84135787-142.83869014-49.9712 54.73745493-106.74424213 144.1792-169.624048 267.928048-40.81105493 80.4057216-76.11112747 201.02671467-105.7512736 312.21449707 24.1043392-17.3273216 126.8518784-33.98438827 159.2226912-50.020848z m-221.184 331.7015264c-2.507248 11.44397547-11.61774507 16.334352-27.3314912 14.64630293-15.71374507-1.688048-22.9376-9.28426667-21.6467392-22.78865386 37.90661867-253.6541088 95.30026667-456.344048 172.42918827-608.21876374 77.10409707-151.80024213 146.04101867-254.721552 208.02715093-309.4838304l27.05842454-23.85609706 12.66036373 33.7609696c26.58676373 61.489648 71.86618133 140.132848 87.604752 195.41643626 15.7385696 55.28358827 23.26031467 72.41231467 15.58962347 119.87626667l-3.07820587 19.04019413-116.42569707 5.95781867 99.49556374 72.3130176-11.31985494 17.30249707c-64.22031467 98.08058133-130.6003392 164.51025493-199.83515093 198.8421824-58.83345493 29.1436608-176.10317547 34.85323627-202.96300587 66.2807264l-40.28974613 220.91093333z" fill="#ffffff" p-id="730"></path></svg>