<?xml version="1.0" standalone="no"?><!DOCTYPE svg PUBLIC "-//W3C//DTD SVG 1.1//EN" "http://www.w3.org/Graphics/SVG/1.1/DTD/svg11.dtd"><svg t="1578166546362" class="icon" viewBox="0 0 1024 1024" version="1.1" xmlns="http://www.w3.org/2000/svg" p-id="1237" xmlns:xlink="http://www.w3.org/1999/xlink" width="200" height="200"><defs><style type="text/css"></style></defs><path d="M 338.33 366.532 L 510.549 969.037 L 682.778 366.532 L 338.33 366.532 Z" fill="#ea6f5a" p-id="1238"></path><path d="M 374.656 51.2853 L 176.265 51.2853 L 21.3333 303.505 L 273.749 303.505 L 374.656 51.2853 Z" fill="#ea6f5a" p-id="1239"></path><path d="M 679.415 303.471 L 578.492 51.2853 L 442.59 51.2853 L 341.7 303.505 L 679.415 303.471 Z" fill="#ea6f5a" p-id="1240"></path><path d="M 35.7461 366.566 l 170.854 216.806 c 0.4096 -0.187733 222.43 282.24 222.43 282.24 L 272.102 366.566 L 35.7461 366.566 L 35.7461 366.566 Z" fill="#ea6f5a" p-id="1241"></path><path d="M 646.409 51.2853 L 747.332 303.471 L 1002.67 303.505 L 844.817 51.2853 L 646.409 51.2853 Z" fill="#ea6f5a" p-id="1242"></path><path d="M 595.84 861.449 l 296.883 -374.306 c -0.546133 -0.264533 95.1808 -120.576 95.1808 -120.576 L 748.954 366.566 L 595.84 861.449 L 595.84 861.449 Z" fill="#ea6f5a" p-id="1243"></path></svg>