<svg xmlns="http://www.w3.org/2000/svg" viewBox="0 0 48 48"><title>logo-mark</title><path d="M43,9.33A24,24,0,1,0,38.67,43,24,24,0,0,0,43,9.33Z" style="fill:#ff6c37"/><path d="M32.09,15.29,22,25.41l-2.86-2.86C29.07,12.58,30.06,13.46,32.09,15.29Z" style="fill:#fff"/><path d="M22,25.77h0a.35.35,0,0,1-.25-.1L18.85,22.8a.36.36,0,0,1,0-.51C28.67,12.48,30,12.93,32.33,15a.32.32,0,0,1,.12.25.34.34,0,0,1-.1.27L22.23,25.67A.35.35,0,0,1,22,25.77Zm-2.35-3.22L22,24.9l9.6-9.59a2.19,2.19,0,0,0-2.85-.48C27,15.61,24.18,18,19.62,22.55Z" style="fill:#ff6c37"/><path d="M24.87,28.31l-2.76-2.76L32.23,15.43C35,18.15,30.91,22.6,24.87,28.31Z" style="fill:#fff"/><path d="M24.87,28.67h0a.34.34,0,0,1-.24-.11L21.85,25.8a.37.37,0,0,1-.1-.25.4.4,0,0,1,.1-.26L32,15.17a.38.38,0,0,1,.51,0,3.11,3.11,0,0,1,1,2.33c0,2.71-3.08,6.11-8.33,11.07A.35.35,0,0,1,24.87,28.67Zm-2.25-3.12c1.34,1.34,2,2,2.26,2.26,4-3.79,7.82-7.67,7.85-10.32A2.34,2.34,0,0,0,32.21,16Z" style="fill:#ff6c37"/><path d="M19.18,22.62l2,2a.1.1,0,0,1,0,.16L17,25.73a.4.4,0,0,1-.36-.67L19,22.62A.1.1,0,0,1,19.18,22.62Z" style="fill:#fff"/><path d="M16.87,26.1a.76.76,0,0,1-.53-1.29l2.44-2.45a.48.48,0,0,1,.65,0l2,2a.49.49,0,0,1,.12.46.47.47,0,0,1-.35.32l-4.21.9Zm2.24-3-2.26,2.26s0,0,0,0a0,0,0,0,0,0,0l3.74-.81Zm.18-.19Z" style="fill:#ff6c37"/><path d="M37.46,9.68a3.88,3.88,0,1,0-.69,6.12l-2.72-2.72Z" style="fill:#fff"/><path d="M34.77,16.72a4.24,4.24,0,0,1-3-7.25,4.27,4.27,0,0,1,5.94-.05.34.34,0,0,1,.11.25.36.36,0,0,1-.11.26l-3.15,3.15L37,15.55a.34.34,0,0,1,.1.29.38.38,0,0,1-.17.27A4.24,4.24,0,0,1,34.77,16.72Zm0-7.76a3.52,3.52,0,1,0,1.4,6.75L33.8,13.33a.34.34,0,0,1,0-.5l3.13-3.14A3.52,3.52,0,0,0,34.77,9Z" style="fill:#ff6c37"/><path d="M37.52,9.73l-.06-.05-3.41,3.4,2.72,2.72a3.77,3.77,0,0,0,.75-.58A3.89,3.89,0,0,0,37.52,9.73Z" style="fill:#fff"/><path d="M36.77,16.16a.39.39,0,0,1-.25-.1L33.8,13.33a.34.34,0,0,1,0-.5l3.4-3.41a.37.37,0,0,1,.51,0l.06.06A4.24,4.24,0,0,1,37,16.11.41.41,0,0,1,36.77,16.16Zm-2.21-3.08,2.26,2.26a3.19,3.19,0,0,0,.44-.37,3.51,3.51,0,0,0,.19-4.78Z" style="fill:#ff6c37"/><path d="M32.51,15.71h0a1.47,1.47,0,0,0-2.09,0l-9,9.05,1.5,1.51,9.57-8.4A1.49,1.49,0,0,0,32.51,15.71Z" style="fill:#fff"/><path d="M22.87,26.63a.36.36,0,0,1-.25-.11L21.11,25a.36.36,0,0,1,0-.51l9.05-9a1.83,1.83,0,0,1,2.6,0h0a1.8,1.8,0,0,1,.54,1.35,1.88,1.88,0,0,1-.62,1.33l-9.57,8.4A.36.36,0,0,1,22.87,26.63Zm-1-1.87,1,1,9.31-8.18a1.07,1.07,0,0,0,.38-.8,1.1,1.1,0,0,0-.33-.83,1.13,1.13,0,0,0-1.58,0Z" style="fill:#ff6c37"/><path d="M14.43,35.05a.2.2,0,0,0-.11.24l.4,1.73a.49.49,0,0,1-.82.46l-2.63-2.62,8.61-8.62,3,.05,2,2C24.37,28.73,21.47,31.52,14.43,35.05Z" style="fill:#fff"/><path d="M14.24,38a.87.87,0,0,1-.6-.25L11,35.11a.34.34,0,0,1-.11-.25A.36.36,0,0,1,11,34.6L19.63,26a.36.36,0,0,1,.26-.11l3,.05a.32.32,0,0,1,.24.11l2,2a.34.34,0,0,1,.1.27.35.35,0,0,1-.13.26l-.16.14a49.17,49.17,0,0,1-10.25,6.59l.38,1.62a.85.85,0,0,1-.41.94A.91.91,0,0,1,14.24,38Zm-2.46-3.13,2.37,2.37a.13.13,0,0,0,.16,0,.11.11,0,0,0,.06-.14L14,35.37a.56.56,0,0,1,.29-.64h0a49.08,49.08,0,0,0,10.07-6.44L22.7,26.65l-2.67,0Zm2.89.35Z" style="fill:#ff6c37"/><path d="M9.21,36.92l2.06-2.06,3.07,3.06-4.9-.33A.4.4,0,0,1,9.21,36.92Z" style="fill:#fff"/><path d="M14.34,38.28h0L9.42,38a.75.75,0,0,1-.64-.51A.72.72,0,0,1,9,36.67H9L11,34.6a.36.36,0,0,1,.51,0l3.06,3.07a.36.36,0,0,1,.08.4A.36.36,0,0,1,14.34,38.28ZM9.46,37.17s0,0,0,0a0,0,0,0,0,0,0l3.92.27-2.13-2.13Z" style="fill:#ff6c37"/><polygon points="23.05 26.49 19.01 27.12 21.34 24.79 23.05 26.49" style="fill:#fff"/><path d="M19,27.48a.36.36,0,0,1-.25-.62l2.33-2.33a.36.36,0,0,1,.51,0l1.7,1.71a.34.34,0,0,1,.09.36.37.37,0,0,1-.29.25l-4,.62Zm2.33-2.19-1.29,1.3,2.24-.35Z" style="fill:#ff6c37"/><path d="M23.05,26.49l-2.83.37a.37.37,0,0,1-.34-.62l1.46-1.45Z" style="fill:#fff"/><path d="M20.14,27.23A.73.73,0,0,1,19.63,26l1.46-1.46a.36.36,0,0,1,.51,0l1.7,1.71a.36.36,0,0,1-.2.61l-2.82.36Zm0-.73h0l2.11-.27-.94-.94-1.2,1.21Z" style="fill:#ff6c37"/><path d="M37.54,12a.27.27,0,0,0-.37-.13.28.28,0,0,0-.13.37.84.84,0,0,1-.1.91.27.27,0,0,0,0,.39.28.28,0,0,0,.18.06.26.26,0,0,0,.21-.1A1.37,1.37,0,0,0,37.54,12Z" style="fill:#ff6c37"/></svg>