<svg xmlns="http://www.w3.org/2000/svg" xmlns:xlink="http://www.w3.org/1999/xlink" contentStyleType="text/css" height="658px" preserveAspectRatio="none" style="width:1571px;height:658px;background:#FFFFFF;" version="1.1" viewBox="0 0 1571 658" width="1571px" zoomAndPan="magnify"><defs/><g><!--cluster eb0a191797624dd3a48fa681d3061212--><g id="cluster_eb0a191797624dd3a48fa681d3061212"><polygon fill="none" points="503,16,513,6,753,6,753,540.67,743,550.67,503,550.67,503,16" style="stroke:#181818;stroke-width:1.0;"/><line style="stroke:#181818;stroke-width:1.0;" x1="743" x2="753" y1="16" y2="6"/><line style="stroke:#181818;stroke-width:1.0;" x1="503" x2="743" y1="16" y2="16"/><line style="stroke:#181818;stroke-width:1.0;" x1="743" x2="743" y1="16" y2="550.67"/><text fill="#000000" font-family="sans-serif" font-size="14" font-weight="bold" lengthAdjust="spacing" textLength="54" x="597" y="31.9951">Master</text></g><!--cluster 1f7ba58706f9d405023da32864d059c8--><g id="cluster_1f7ba58706f9d405023da32864d059c8"><polygon fill="none" points="845,16,855,6,1095,6,1095,540.67,1085,550.67,845,550.67,845,16" style="stroke:#181818;stroke-width:1.0;"/><line style="stroke:#181818;stroke-width:1.0;" x1="1085" x2="1095" y1="16" y2="6"/><line style="stroke:#181818;stroke-width:1.0;" x1="845" x2="1085" y1="16" y2="16"/><line style="stroke:#181818;stroke-width:1.0;" x1="1085" x2="1085" y1="16" y2="550.67"/><text fill="#000000" font-family="sans-serif" font-size="14" font-weight="bold" lengthAdjust="spacing" textLength="84" x="924" y="31.9951">Secondary</text></g><!--cluster 79106d6f07979e0653c4eeee6cd378a0--><g id="cluster_79106d6f07979e0653c4eeee6cd378a0"><polygon fill="none" points="1187,16,1197,6,1437,6,1437,540.67,1427,550.67,1187,550.67,1187,16" style="stroke:#181818;stroke-width:1.0;"/><line style="stroke:#181818;stroke-width:1.0;" x1="1427" x2="1437" y1="16" y2="6"/><line style="stroke:#181818;stroke-width:1.0;" x1="1187" x2="1427" y1="16" y2="16"/><line style="stroke:#181818;stroke-width:1.0;" x1="1427" x2="1427" y1="16" y2="550.67"/><text fill="#000000" font-family="sans-serif" font-size="14" font-weight="bold" lengthAdjust="spacing" textLength="55" x="1280.5" y="31.9951">Arbiter</text></g><!--cluster ed13b6a07c1f61a2398d6c1ea2658f24--><g id="cluster_ed13b6a07c1f61a2398d6c1ea2658f24"><path d="M8.5,27.3 L63.5,27.3 A3.75,3.75 0 0 1 66,29.8 L73,49.5969 L349.5,49.5969 A2.5,2.5 0 0 1 352,52.0969 L352,310.88 A2.5,2.5 0 0 1 349.5,313.38 L8.5,313.38 A2.5,2.5 0 0 1 6,310.88 L6,29.8 A2.5,2.5 0 0 1 8.5,27.3 " fill="none" style="stroke:#000000;stroke-width:1.5;"/><line style="stroke:#000000;stroke-width:1.5;" x1="6" x2="73" y1="49.5969" y2="49.5969"/><text fill="#000000" font-family="sans-serif" font-size="14" font-weight="bold" lengthAdjust="spacing" textLength="54" x="10" y="42.2951">app01/</text></g><!--cluster 82f1acd040ffe01448ed38b8eed18f54--><g id="cluster_82f1acd040ffe01448ed38b8eed18f54"><path d="M1463.5,27.3 L1551.5,27.3 A3.75,3.75 0 0 1 1554,29.8 L1561,49.5969 L1561.5,49.5969 A2.5,2.5 0 0 1 1564,52.0969 L1564,154.69 A2.5,2.5 0 0 1 1561.5,157.19 L1463.5,157.19 A2.5,2.5 0 0 1 1461,154.69 L1461,29.8 A2.5,2.5 0 0 1 1463.5,27.3 " fill="none" style="stroke:#000000;stroke-width:1.5;"/><line style="stroke:#000000;stroke-width:1.5;" x1="1461" x2="1561" y1="49.5969" y2="49.5969"/><text fill="#000000" font-family="sans-serif" font-size="14" font-weight="bold" lengthAdjust="spacing" textLength="87" x="1465" y="42.2951">ajax_demo/</text></g><!--entity 44f7f16abc2e035963d440db2b0c3653--><g id="elem_44f7f16abc2e035963d440db2b0c3653"><rect fill="#F1F1F1" height="111.4844" rx="2.5" ry="2.5" style="stroke:#181818;stroke-width:0.5;" width="217" x="519.5" y="46"/><rect fill="#F1F1F1" height="10" style="stroke:#181818;stroke-width:0.5;" width="15" x="716.5" y="51"/><rect fill="#F1F1F1" height="2" style="stroke:#181818;stroke-width:0.5;" width="4" x="714.5" y="53"/><rect fill="#F1F1F1" height="2" style="stroke:#181818;stroke-width:0.5;" width="4" x="714.5" y="57"/><text fill="#000000" font-family="sans-serif" font-size="14" font-weight="bold" lengthAdjust="spacing" textLength="55" x="534.5" y="78.9951">master</text><text fill="#000000" font-family="sans-serif" font-size="14" lengthAdjust="spacing" textLength="4" x="534.5" y="95.292">&#160;</text><text fill="#000000" font-family="sans-serif" font-size="14" lengthAdjust="spacing" textLength="177" x="534.5" y="111.5889">image: mongo-replica-set</text><text fill="#000000" font-family="sans-serif" font-size="14" lengthAdjust="spacing" textLength="99" x="534.5" y="127.8857">restart: always</text><text fill="#000000" font-family="sans-serif" font-size="14" lengthAdjust="spacing" textLength="4" x="534.5" y="144.1826">&#160;</text></g><!--entity 7912789d67b00abe24468801c282c155--><g id="elem_7912789d67b00abe24468801c282c155"><ellipse cx="700" cy="257.93" fill="#F1F1F1" rx="8" ry="8" style="stroke:#181818;stroke-width:0.5;"/><text fill="#000000" font-family="sans-serif" font-size="14" lengthAdjust="spacing" textLength="45" x="677.5" y="287.9251">27017</text></g><!--entity c1dd93af990ed8a3098ee30c4ee468cc--><g id="elem_c1dd93af990ed8a3098ee30c4ee468cc"><rect fill="#F1F1F1" height="39.2969" rx="2.5" ry="2.5" style="stroke:#181818;stroke-width:0.5;" width="88" x="584" y="495.38"/><polygon fill="#F1F1F1" points="655,500.38,655,514.38,667,514.38,667,506.38,661,500.38,655,500.38" style="stroke:#181818;stroke-width:0.5;"/><line style="stroke:#181818;stroke-width:0.5;" x1="661" x2="661" y1="500.38" y2="506.38"/><line style="stroke:#181818;stroke-width:0.5;" x1="667" x2="661" y1="506.38" y2="506.38"/><text fill="#000000" font-family="sans-serif" font-size="14" lengthAdjust="spacing" textLength="58" x="594" y="521.3751">/data/db</text></g><!--entity 87d839792060d0f1b1a0cde2940e3ac9--><g id="elem_87d839792060d0f1b1a0cde2940e3ac9"><rect fill="#F1F1F1" height="111.4844" rx="2.5" ry="2.5" style="stroke:#181818;stroke-width:0.5;" width="217" x="861.5" y="46"/><rect fill="#F1F1F1" height="10" style="stroke:#181818;stroke-width:0.5;" width="15" x="1058.5" y="51"/><rect fill="#F1F1F1" height="2" style="stroke:#181818;stroke-width:0.5;" width="4" x="1056.5" y="53"/><rect fill="#F1F1F1" height="2" style="stroke:#181818;stroke-width:0.5;" width="4" x="1056.5" y="57"/><text fill="#000000" font-family="sans-serif" font-size="14" font-weight="bold" lengthAdjust="spacing" textLength="83" x="876.5" y="78.9951">secondary</text><text fill="#000000" font-family="sans-serif" font-size="14" lengthAdjust="spacing" textLength="4" x="876.5" y="95.292">&#160;</text><text fill="#000000" font-family="sans-serif" font-size="14" lengthAdjust="spacing" textLength="177" x="876.5" y="111.5889">image: mongo-replica-set</text><text fill="#000000" font-family="sans-serif" font-size="14" lengthAdjust="spacing" textLength="99" x="876.5" y="127.8857">restart: always</text><text fill="#000000" font-family="sans-serif" font-size="14" lengthAdjust="spacing" textLength="4" x="876.5" y="144.1826">&#160;</text></g><!--entity 013488ce26d397d540f22bc4cd491f77--><g id="elem_013488ce26d397d540f22bc4cd491f77"><ellipse cx="1042" cy="257.93" fill="#F1F1F1" rx="8" ry="8" style="stroke:#181818;stroke-width:0.5;"/><text fill="#000000" font-family="sans-serif" font-size="14" lengthAdjust="spacing" textLength="45" x="1019.5" y="287.9251">27017</text></g><!--entity 4c14ae43e4acd88e87ee161de7fd5d29--><g id="elem_4c14ae43e4acd88e87ee161de7fd5d29"><rect fill="#F1F1F1" height="39.2969" rx="2.5" ry="2.5" style="stroke:#181818;stroke-width:0.5;" width="88" x="926" y="495.38"/><polygon fill="#F1F1F1" points="997,500.38,997,514.38,1009,514.38,1009,506.38,1003,500.38,997,500.38" style="stroke:#181818;stroke-width:0.5;"/><line style="stroke:#181818;stroke-width:0.5;" x1="1003" x2="1003" y1="500.38" y2="506.38"/><line style="stroke:#181818;stroke-width:0.5;" x1="1009" x2="1003" y1="506.38" y2="506.38"/><text fill="#000000" font-family="sans-serif" font-size="14" lengthAdjust="spacing" textLength="58" x="936" y="521.3751">/data/db</text></g><!--entity dcd9e1a8568e09ea1a756a59093bc541--><g id="elem_dcd9e1a8568e09ea1a756a59093bc541"><rect fill="#F1F1F1" height="111.4844" rx="2.5" ry="2.5" style="stroke:#181818;stroke-width:0.5;" width="217" x="1203.5" y="46"/><rect fill="#F1F1F1" height="10" style="stroke:#181818;stroke-width:0.5;" width="15" x="1400.5" y="51"/><rect fill="#F1F1F1" height="2" style="stroke:#181818;stroke-width:0.5;" width="4" x="1398.5" y="53"/><rect fill="#F1F1F1" height="2" style="stroke:#181818;stroke-width:0.5;" width="4" x="1398.5" y="57"/><text fill="#000000" font-family="sans-serif" font-size="14" font-weight="bold" lengthAdjust="spacing" textLength="53" x="1218.5" y="78.9951">arbiter</text><text fill="#000000" font-family="sans-serif" font-size="14" lengthAdjust="spacing" textLength="4" x="1218.5" y="95.292">&#160;</text><text fill="#000000" font-family="sans-serif" font-size="14" lengthAdjust="spacing" textLength="177" x="1218.5" y="111.5889">image: mongo-replica-set</text><text fill="#000000" font-family="sans-serif" font-size="14" lengthAdjust="spacing" textLength="99" x="1218.5" y="127.8857">restart: always</text><text fill="#000000" font-family="sans-serif" font-size="14" lengthAdjust="spacing" textLength="4" x="1218.5" y="144.1826">&#160;</text></g><!--entity c023688a479cad21ab4ee1e345ee8d6c--><g id="elem_c023688a479cad21ab4ee1e345ee8d6c"><ellipse cx="1384" cy="257.93" fill="#F1F1F1" rx="8" ry="8" style="stroke:#181818;stroke-width:0.5;"/><text fill="#000000" font-family="sans-serif" font-size="14" lengthAdjust="spacing" textLength="45" x="1361.5" y="287.9251">27017</text></g><!--entity 3a673939d25c05893458778a09020f0f--><g id="elem_3a673939d25c05893458778a09020f0f"><rect fill="#F1F1F1" height="39.2969" rx="2.5" ry="2.5" style="stroke:#181818;stroke-width:0.5;" width="88" x="1268" y="495.38"/><polygon fill="#F1F1F1" points="1339,500.38,1339,514.38,1351,514.38,1351,506.38,1345,500.38,1339,500.38" style="stroke:#181818;stroke-width:0.5;"/><line style="stroke:#181818;stroke-width:0.5;" x1="1345" x2="1345" y1="500.38" y2="506.38"/><line style="stroke:#181818;stroke-width:0.5;" x1="1351" x2="1345" y1="506.38" y2="506.38"/><text fill="#000000" font-family="sans-serif" font-size="14" lengthAdjust="spacing" textLength="58" x="1278" y="521.3751">/data/db</text></g><!--entity 26fa7cc27b83c1955b663059bad2d8d6--><g id="elem_26fa7cc27b83c1955b663059bad2d8d6"><rect fill="#F1F1F1" height="78.8906" rx="2.5" ry="2.5" style="stroke:#181818;stroke-width:0.5;" width="86" x="250" y="62.3"/><rect fill="#F1F1F1" height="10" style="stroke:#181818;stroke-width:0.5;" width="15" x="316" y="67.3"/><rect fill="#F1F1F1" height="2" style="stroke:#181818;stroke-width:0.5;" width="4" x="314" y="69.3"/><rect fill="#F1F1F1" height="2" style="stroke:#181818;stroke-width:0.5;" width="4" x="314" y="73.3"/><text fill="#000000" font-family="sans-serif" font-size="14" font-weight="bold" lengthAdjust="spacing" textLength="46" x="265" y="95.2951">views</text><text fill="#000000" font-family="sans-serif" font-size="14" lengthAdjust="spacing" textLength="4" x="265" y="111.592">&#160;</text><text fill="#000000" font-family="sans-serif" font-size="14" lengthAdjust="spacing" textLength="4" x="265" y="127.8889">&#160;</text></g><!--entity 2bf45111657a61a2a7cb8961dab480a8--><g id="elem_2bf45111657a61a2a7cb8961dab480a8"><rect fill="#F1F1F1" height="78.8906" rx="2.5" ry="2.5" style="stroke:#181818;stroke-width:0.5;" width="80" x="22" y="62.3"/><rect fill="#F1F1F1" height="10" style="stroke:#181818;stroke-width:0.5;" width="15" x="82" y="67.3"/><rect fill="#F1F1F1" height="2" style="stroke:#181818;stroke-width:0.5;" width="4" x="80" y="69.3"/><rect fill="#F1F1F1" height="2" style="stroke:#181818;stroke-width:0.5;" width="4" x="80" y="73.3"/><text fill="#000000" font-family="sans-serif" font-size="14" font-weight="bold" lengthAdjust="spacing" textLength="40" x="37" y="95.2951">tests</text><text fill="#000000" font-family="sans-serif" font-size="14" lengthAdjust="spacing" textLength="4" x="37" y="111.592">&#160;</text><text fill="#000000" font-family="sans-serif" font-size="14" lengthAdjust="spacing" textLength="4" x="37" y="127.8889">&#160;</text></g><!--entity 12770d9a0b08de5e04f438d1737cbdaa--><g id="elem_12770d9a0b08de5e04f438d1737cbdaa"><rect fill="#F1F1F1" height="78.8906" rx="2.5" ry="2.5" style="stroke:#181818;stroke-width:0.5;" width="78" x="137" y="62.3"/><rect fill="#F1F1F1" height="10" style="stroke:#181818;stroke-width:0.5;" width="15" x="195" y="67.3"/><rect fill="#F1F1F1" height="2" style="stroke:#181818;stroke-width:0.5;" width="4" x="193" y="69.3"/><rect fill="#F1F1F1" height="2" style="stroke:#181818;stroke-width:0.5;" width="4" x="193" y="73.3"/><text fill="#000000" font-family="sans-serif" font-size="14" font-weight="bold" lengthAdjust="spacing" textLength="38" x="152" y="95.2951">apps</text><text fill="#000000" font-family="sans-serif" font-size="14" lengthAdjust="spacing" textLength="4" x="152" y="111.592">&#160;</text><text fill="#000000" font-family="sans-serif" font-size="14" lengthAdjust="spacing" textLength="4" x="152" y="127.8889">&#160;</text></g><!--entity 80860729fcfe5fada3cd06ea51022ae6--><g id="elem_80860729fcfe5fada3cd06ea51022ae6"><rect fill="#F1F1F1" height="78.8906" rx="2.5" ry="2.5" style="stroke:#181818;stroke-width:0.5;" width="97" x="239.5" y="218.49"/><rect fill="#F1F1F1" height="10" style="stroke:#181818;stroke-width:0.5;" width="15" x="316.5" y="223.49"/><rect fill="#F1F1F1" height="2" style="stroke:#181818;stroke-width:0.5;" width="4" x="314.5" y="225.49"/><rect fill="#F1F1F1" height="2" style="stroke:#181818;stroke-width:0.5;" width="4" x="314.5" y="229.49"/><text fill="#000000" font-family="sans-serif" font-size="14" font-weight="bold" lengthAdjust="spacing" textLength="57" x="254.5" y="251.4851">models</text><text fill="#000000" font-family="sans-serif" font-size="14" lengthAdjust="spacing" textLength="4" x="254.5" y="267.782">&#160;</text><text fill="#000000" font-family="sans-serif" font-size="14" lengthAdjust="spacing" textLength="4" x="254.5" y="284.0789">&#160;</text></g><!--entity dc7c7abb25a5a9602bc95fc4194d218b--><g id="elem_dc7c7abb25a5a9602bc95fc4194d218b"><rect fill="#F1F1F1" height="78.8906" rx="2.5" ry="2.5" style="stroke:#181818;stroke-width:0.5;" width="87" x="21.5" y="218.49"/><rect fill="#F1F1F1" height="10" style="stroke:#181818;stroke-width:0.5;" width="15" x="88.5" y="223.49"/><rect fill="#F1F1F1" height="2" style="stroke:#181818;stroke-width:0.5;" width="4" x="86.5" y="225.49"/><rect fill="#F1F1F1" height="2" style="stroke:#181818;stroke-width:0.5;" width="4" x="86.5" y="229.49"/><text fill="#000000" font-family="sans-serif" font-size="14" font-weight="bold" lengthAdjust="spacing" textLength="47" x="36.5" y="251.4851">admin</text><text fill="#000000" font-family="sans-serif" font-size="14" lengthAdjust="spacing" textLength="4" x="36.5" y="267.782">&#160;</text><text fill="#000000" font-family="sans-serif" font-size="14" lengthAdjust="spacing" textLength="4" x="36.5" y="284.0789">&#160;</text></g><!--entity 19836fe1fd9e2d24c7492b4e45bf2470--><g id="elem_19836fe1fd9e2d24c7492b4e45bf2470"><rect fill="#F1F1F1" height="78.8906" rx="2.5" ry="2.5" style="stroke:#181818;stroke-width:0.5;" width="70" x="1477" y="62.3"/><rect fill="#F1F1F1" height="10" style="stroke:#181818;stroke-width:0.5;" width="15" x="1527" y="67.3"/><rect fill="#F1F1F1" height="2" style="stroke:#181818;stroke-width:0.5;" width="4" x="1525" y="69.3"/><rect fill="#F1F1F1" height="2" style="stroke:#181818;stroke-width:0.5;" width="4" x="1525" y="73.3"/><text fill="#000000" font-family="sans-serif" font-size="14" font-weight="bold" lengthAdjust="spacing" textLength="30" x="1492" y="95.2951">urls</text><text fill="#000000" font-family="sans-serif" font-size="14" lengthAdjust="spacing" textLength="4" x="1492" y="111.592">&#160;</text><text fill="#000000" font-family="sans-serif" font-size="14" lengthAdjust="spacing" textLength="4" x="1492" y="127.8889">&#160;</text></g><!--entity c21f969b5f03d33d43e04f8f136e7682--><g id="elem_c21f969b5f03d33d43e04f8f136e7682"><polygon fill="#F1F1F1" points="371,80.45,381,70.45,485,70.45,485,123.0438,475,133.0438,371,133.0438,371,80.45" style="stroke:#181818;stroke-width:0.5;"/><line style="stroke:#181818;stroke-width:0.5;" x1="475" x2="485" y1="80.45" y2="70.45"/><line style="stroke:#181818;stroke-width:0.5;" x1="371" x2="475" y1="80.45" y2="80.45"/><line style="stroke:#181818;stroke-width:0.5;" x1="475" x2="475" y1="80.45" y2="133.0438"/><text fill="#000000" font-family="sans-serif" font-size="14" font-weight="bold" lengthAdjust="spacing" textLength="55" x="386" y="103.4451">default</text><text fill="#000000" font-family="sans-serif" font-size="14" lengthAdjust="spacing" textLength="74" x="386" y="119.742">&#171;network&#187;</text></g><!--entity 37e69ad4a86515fae9ee6cefbcedd554--><g id="elem_37e69ad4a86515fae9ee6cefbcedd554"><ellipse cx="799" cy="405.38" fill="#F1F1F1" rx="8" ry="8" style="stroke:#181818;stroke-width:0.5;"/><text fill="#000000" font-family="sans-serif" font-size="14" lengthAdjust="spacing" textLength="45" x="776.5" y="435.3751">27017</text></g><!--entity c205a3728c844ec3a8710002236d24c6--><g id="elem_c205a3728c844ec3a8710002236d24c6"><ellipse cx="1141" cy="405.38" fill="#F1F1F1" rx="8" ry="8" style="stroke:#181818;stroke-width:0.5;"/><text fill="#000000" font-family="sans-serif" font-size="14" lengthAdjust="spacing" textLength="45" x="1118.5" y="435.3751">27018</text></g><!--entity 2d9d2fcc9c762df8e4563671795a8fbe--><g id="elem_2d9d2fcc9c762df8e4563671795a8fbe"><ellipse cx="1483" cy="405.38" fill="#F1F1F1" rx="8" ry="8" style="stroke:#181818;stroke-width:0.5;"/><text fill="#000000" font-family="sans-serif" font-size="14" lengthAdjust="spacing" textLength="45" x="1460.5" y="435.3751">27019</text></g><!--entity 26a6c21dc9eff55d95bf4a1e18656a61--><g id="elem_26a6c21dc9eff55d95bf4a1e18656a61"><rect fill="#F1F1F1" height="39.2969" rx="2.5" ry="2.5" style="stroke:#181818;stroke-width:0.5;" width="146" x="555" y="613.67"/><polygon fill="#F1F1F1" points="684,618.67,684,632.67,696,632.67,696,624.67,690,618.67,684,618.67" style="stroke:#181818;stroke-width:0.5;"/><line style="stroke:#181818;stroke-width:0.5;" x1="690" x2="690" y1="618.67" y2="624.67"/><line style="stroke:#181818;stroke-width:0.5;" x1="696" x2="690" y1="624.67" y2="624.67"/><text fill="#000000" font-family="sans-serif" font-size="14" lengthAdjust="spacing" textLength="116" x="565" y="639.6651">./data/mongo/d1</text></g><!--entity d2ea41a5888875ef35bceae51c18a346--><g id="elem_d2ea41a5888875ef35bceae51c18a346"><rect fill="#F1F1F1" height="39.2969" rx="2.5" ry="2.5" style="stroke:#181818;stroke-width:0.5;" width="146" x="897" y="613.67"/><polygon fill="#F1F1F1" points="1026,618.67,1026,632.67,1038,632.67,1038,624.67,1032,618.67,1026,618.67" style="stroke:#181818;stroke-width:0.5;"/><line style="stroke:#181818;stroke-width:0.5;" x1="1032" x2="1032" y1="618.67" y2="624.67"/><line style="stroke:#181818;stroke-width:0.5;" x1="1038" x2="1032" y1="624.67" y2="624.67"/><text fill="#000000" font-family="sans-serif" font-size="14" lengthAdjust="spacing" textLength="116" x="907" y="639.6651">./data/mongo/d2</text></g><!--entity 80b74b1e6a4ce02d4f854edd266df44c--><g id="elem_80b74b1e6a4ce02d4f854edd266df44c"><rect fill="#F1F1F1" height="39.2969" rx="2.5" ry="2.5" style="stroke:#181818;stroke-width:0.5;" width="146" x="1239" y="613.67"/><polygon fill="#F1F1F1" points="1368,618.67,1368,632.67,1380,632.67,1380,624.67,1374,618.67,1368,618.67" style="stroke:#181818;stroke-width:0.5;"/><line style="stroke:#181818;stroke-width:0.5;" x1="1374" x2="1374" y1="618.67" y2="624.67"/><line style="stroke:#181818;stroke-width:0.5;" x1="1380" x2="1374" y1="624.67" y2="624.67"/><text fill="#000000" font-family="sans-serif" font-size="14" lengthAdjust="spacing" textLength="116" x="1249" y="639.6651">./data/mongo/d3</text></g><!--link 44f7f16abc2e035963d440db2b0c3653 to 7912789d67b00abe24468801c282c155--><g id="link_44f7f16abc2e035963d440db2b0c3653_7912789d67b00abe24468801c282c155"><path codeLine="42" d="M653.79,157.97 C669.69,192.02 688.48,232.27 696.3,249.01 " fill="none" id="44f7f16abc2e035963d440db2b0c3653-7912789d67b00abe24468801c282c155" style="stroke:#181818;stroke-width:1.0;"/></g><!--link 7912789d67b00abe24468801c282c155 to 37e69ad4a86515fae9ee6cefbcedd554--><g id="link_7912789d67b00abe24468801c282c155_37e69ad4a86515fae9ee6cefbcedd554"><path codeLine="43" d="M705.32,266.75 C722.51,292 776.42,371.21 793.65,396.52 " fill="none" id="7912789d67b00abe24468801c282c155-37e69ad4a86515fae9ee6cefbcedd554" style="stroke:#181818;stroke-width:1.0;"/></g><!--link c1dd93af990ed8a3098ee30c4ee468cc to 26a6c21dc9eff55d95bf4a1e18656a61--><g id="link_c1dd93af990ed8a3098ee30c4ee468cc_26a6c21dc9eff55d95bf4a1e18656a61"><path codeLine="44" d="M628,534.97 C628,556.59 628,591.76 628,613.39 " fill="none" id="c1dd93af990ed8a3098ee30c4ee468cc-26a6c21dc9eff55d95bf4a1e18656a61" style="stroke:#181818;stroke-width:1.0;"/><text fill="#000000" font-family="sans-serif" font-size="13" lengthAdjust="spacing" textLength="14" x="629" y="579.7369">rw</text></g><!--link 44f7f16abc2e035963d440db2b0c3653 to c1dd93af990ed8a3098ee30c4ee468cc--><g id="link_44f7f16abc2e035963d440db2b0c3653_c1dd93af990ed8a3098ee30c4ee468cc"><path codeLine="45" d="M628,157.78 C628,251.03 628,429.73 628,489.14 " fill="none" id="44f7f16abc2e035963d440db2b0c3653-to-c1dd93af990ed8a3098ee30c4ee468cc" style="stroke:#181818;stroke-width:1.0;stroke-dasharray:7.0,7.0;"/><polygon fill="#181818" points="628,495.14,632,486.14,628,490.14,624,486.14,628,495.14" style="stroke:#181818;stroke-width:1.0;"/><text fill="#000000" font-family="sans-serif" font-size="13" lengthAdjust="spacing" textLength="23" x="629" y="342.4469">use</text></g><!--link 87d839792060d0f1b1a0cde2940e3ac9 to 013488ce26d397d540f22bc4cd491f77--><g id="link_87d839792060d0f1b1a0cde2940e3ac9_013488ce26d397d540f22bc4cd491f77"><path codeLine="46" d="M995.79,157.97 C1011.69,192.02 1030.48,232.27 1038.3,249.01 " fill="none" id="87d839792060d0f1b1a0cde2940e3ac9-013488ce26d397d540f22bc4cd491f77" style="stroke:#181818;stroke-width:1.0;"/></g><!--link 013488ce26d397d540f22bc4cd491f77 to c205a3728c844ec3a8710002236d24c6--><g id="link_013488ce26d397d540f22bc4cd491f77_c205a3728c844ec3a8710002236d24c6"><path codeLine="47" d="M1047.32,266.75 C1064.51,292 1118.42,371.21 1135.65,396.52 " fill="none" id="013488ce26d397d540f22bc4cd491f77-c205a3728c844ec3a8710002236d24c6" style="stroke:#181818;stroke-width:1.0;"/></g><!--link 4c14ae43e4acd88e87ee161de7fd5d29 to d2ea41a5888875ef35bceae51c18a346--><g id="link_4c14ae43e4acd88e87ee161de7fd5d29_d2ea41a5888875ef35bceae51c18a346"><path codeLine="48" d="M970,534.97 C970,556.59 970,591.76 970,613.39 " fill="none" id="4c14ae43e4acd88e87ee161de7fd5d29-d2ea41a5888875ef35bceae51c18a346" style="stroke:#181818;stroke-width:1.0;"/><text fill="#000000" font-family="sans-serif" font-size="13" lengthAdjust="spacing" textLength="14" x="971" y="579.7369">rw</text></g><!--link 87d839792060d0f1b1a0cde2940e3ac9 to 4c14ae43e4acd88e87ee161de7fd5d29--><g id="link_87d839792060d0f1b1a0cde2940e3ac9_4c14ae43e4acd88e87ee161de7fd5d29"><path codeLine="49" d="M970,157.78 C970,251.03 970,429.73 970,489.14 " fill="none" id="87d839792060d0f1b1a0cde2940e3ac9-to-4c14ae43e4acd88e87ee161de7fd5d29" style="stroke:#181818;stroke-width:1.0;stroke-dasharray:7.0,7.0;"/><polygon fill="#181818" points="970,495.14,974,486.14,970,490.14,966,486.14,970,495.14" style="stroke:#181818;stroke-width:1.0;"/><text fill="#000000" font-family="sans-serif" font-size="13" lengthAdjust="spacing" textLength="23" x="971" y="342.4469">use</text></g><!--link dcd9e1a8568e09ea1a756a59093bc541 to c023688a479cad21ab4ee1e345ee8d6c--><g id="link_dcd9e1a8568e09ea1a756a59093bc541_c023688a479cad21ab4ee1e345ee8d6c"><path codeLine="50" d="M1337.79,157.97 C1353.69,192.02 1372.48,232.27 1380.3,249.01 " fill="none" id="dcd9e1a8568e09ea1a756a59093bc541-c023688a479cad21ab4ee1e345ee8d6c" style="stroke:#181818;stroke-width:1.0;"/></g><!--link c023688a479cad21ab4ee1e345ee8d6c to 2d9d2fcc9c762df8e4563671795a8fbe--><g id="link_c023688a479cad21ab4ee1e345ee8d6c_2d9d2fcc9c762df8e4563671795a8fbe"><path codeLine="51" d="M1389.32,266.75 C1406.51,292 1460.42,371.21 1477.65,396.52 " fill="none" id="c023688a479cad21ab4ee1e345ee8d6c-2d9d2fcc9c762df8e4563671795a8fbe" style="stroke:#181818;stroke-width:1.0;"/></g><!--link 3a673939d25c05893458778a09020f0f to 80b74b1e6a4ce02d4f854edd266df44c--><g id="link_3a673939d25c05893458778a09020f0f_80b74b1e6a4ce02d4f854edd266df44c"><path codeLine="52" d="M1312,534.97 C1312,556.59 1312,591.76 1312,613.39 " fill="none" id="3a673939d25c05893458778a09020f0f-80b74b1e6a4ce02d4f854edd266df44c" style="stroke:#181818;stroke-width:1.0;"/><text fill="#000000" font-family="sans-serif" font-size="13" lengthAdjust="spacing" textLength="14" x="1313" y="579.7369">rw</text></g><!--link dcd9e1a8568e09ea1a756a59093bc541 to 3a673939d25c05893458778a09020f0f--><g id="link_dcd9e1a8568e09ea1a756a59093bc541_3a673939d25c05893458778a09020f0f"><path codeLine="53" d="M1312,157.78 C1312,251.03 1312,429.73 1312,489.14 " fill="none" id="dcd9e1a8568e09ea1a756a59093bc541-to-3a673939d25c05893458778a09020f0f" style="stroke:#181818;stroke-width:1.0;stroke-dasharray:7.0,7.0;"/><polygon fill="#181818" points="1312,495.14,1316,486.14,1312,490.14,1308,486.14,1312,495.14" style="stroke:#181818;stroke-width:1.0;"/><text fill="#000000" font-family="sans-serif" font-size="13" lengthAdjust="spacing" textLength="23" x="1313" y="342.4469">use</text></g><!--link 26fa7cc27b83c1955b663059bad2d8d6 to 80860729fcfe5fada3cd06ea51022ae6--><g id="link_26fa7cc27b83c1955b663059bad2d8d6_80860729fcfe5fada3cd06ea51022ae6"><path codeLine="88" d="M291.74,141.65 C290.98,165.03 290.2149,188.6632 289.4549,212.0432 " fill="none" id="26fa7cc27b83c1955b663059bad2d8d6-to-80860729fcfe5fada3cd06ea51022ae6" style="stroke:#181818;stroke-width:1.0;"/><polygon fill="#181818" points="289.26,218.04,293.5503,209.1747,289.4224,213.0426,285.5545,208.9148,289.26,218.04" style="stroke:#181818;stroke-width:1.0;"/></g><!--SRC=[fLRBRbj73DtVhxZGgXLWcvmd9mWCz0Ewwh8j2iwG4wYn7f2KEa6HVozrPRin0cCMqVRoy778SqRyyB1_t6u-RtOVfjrUT5wjrwATFpsSr-i_Tk_Vx_Jyk3z-lBzVpNoQcyDUKgcnWnVl9NY5qAcZJveJkQSSl_BfhCS5eHKO2-QIamiYdWDrJeJY8Q53D_yxpMs_FUntkZlF8VJSCN5jJi77agn40AckGlCf-ldtQRtUBjdNwsdQRFc3lfkt-zs7_SrH3m-RnZSdFKz7FPtvU7utyyCZVpbDqv_JJp_FAvS1yz9MBkWo5Kcv0d1L5q8Y0coENCCO9qDlEhVplBeJFlETr2i1A58yzr90XTX38LKFBQXQWjQchqyK_APjlnC-VbbWs7FbI1bIBn8WWlF2tb4A0h4qUiq2PI5VSd6GGA1ZHOOcwae0zTpAmiBfkS2F4G7e0r5JbyHAIWpGdQijD0d5kivl4H4Q1bRRV-0cH4fP5HEAvYvHN7aXufTZtJmVWx4EIL87EuUYO0kz4AUQclXC3Azfa2P5aIacKYZAo3acZWMAhoq6N6ZWQ_eV8w7PFcpz779fB0wvMbkeFaHLajJU8i5pohxu8YusY5GCGFaoI0477RgHyBgGpveAIs1A4MDdBPVXjTUc8Z66bt1waXj4zjbHen2qUQQC0E2iMt6XfPVmieGxiKvwQwMPsAIJXfXyoYQ-oDIhVZF6xNMEXQixmIiySJA1IolQUunIOks1KT6QjK_u9jmjS77A0UtAxPUZTXzjAjQ83Kqe8Rq9zmkSeEPGKHE7fk34R2K6OyMb93s4DWszuKPknheU1InPXciQsS2IPSJd_6vU7HzNuy5kR-NszdxeFPTydqwwceR-SUbkAFnHm99bUA4ZdrYoZ4xdcQdXO4zC3Oi-CpMqc6N6aJkC0gxNC1Bdo4oMB2ELF3Cr7Eo9gM7HPwOEt3wQlSuhFXm0xwvlkw2lYI4tx0dP-NAP5fLTYjHTC3l_tyrTwfnRSxcIRrXYh2bvU_ogCIQ6Mzpyduq-dYvURXRz3THq4n4nnSoNEfQdKh5z6j44J0lqR2R_FTJ4da4AGmKIZPT_Ay6JOFQMGvYlRyZXy3sIW19aLthhQXPWptKJICeHxRfPh_rkxObx-1uhBRVCjRh8aKi2aqs9lGKimSw3whMgR3Ux9-ZNR_Zzcp__9RhTNpacrz6E64nzNG5381LFrPGlI3s-vXWB-TGLkotVNVINGt5sZC6SnuKCIzrFnvUElqx3hTZHtG-v-0y0]--></g></svg>