<?xml version="1.0" encoding="UTF-8"?>
<svg width="20px" height="18px" viewBox="0 0 20 18" version="1.1" xmlns="http://www.w3.org/2000/svg" xmlns:xlink="http://www.w3.org/1999/xlink">
    <!-- Generator: Sketch 49.3 (51167) - http://www.bohemiancoding.com/sketch -->
    <title>购物车</title>
    <desc>Created with Sketch.</desc>
    <defs></defs>
    <g id="第二版" stroke="none" stroke-width="1" fill="none" fill-rule="evenodd">
        <g id="课程详情" transform="translate(-1519.000000, -422.000000)" fill="#4a4a4a" fill-rule="nonzero">
            <path d="M1525.71035,436.26 C1525.96714,436.26 1526.21042,436.306667 1526.44018,436.4 C1526.66994,436.493333 1526.87267,436.623333 1527.04837,436.79 C1527.22406,436.956667 1527.35922,437.153333 1527.45382,437.38 C1527.54843,437.606667 1527.59574,437.846667 1527.59574,438.1 C1527.59574,438.353333 1527.54843,438.593333 1527.45382,438.82 C1527.35922,439.046667 1527.22406,439.243333 1527.04837,439.41 C1526.87267,439.576667 1526.66994,439.71 1526.44018,439.81 C1526.21042,439.91 1525.96714,439.96 1525.71035,439.96 C1525.44004,439.96 1525.19339,439.91 1524.97039,439.81 C1524.74738,439.71 1524.54803,439.576667 1524.37233,439.41 C1524.19664,439.243333 1524.06148,439.046667 1523.96688,438.82 C1523.87227,438.593333 1523.82496,438.353333 1523.82496,438.1 C1523.82496,437.846667 1523.87227,437.606667 1523.96688,437.38 C1524.06148,437.153333 1524.19664,436.956667 1524.37233,436.79 C1524.54803,436.623333 1524.74738,436.493333 1524.97039,436.4 C1525.19339,436.306667 1525.44004,436.26 1525.71035,436.26 Z M1534.1439,436.3 C1534.40069,436.3 1534.64735,436.346667 1534.88386,436.44 C1535.12038,436.533333 1535.32311,436.663333 1535.49205,436.83 C1535.661,436.996667 1535.79615,437.193333 1535.89751,437.42 C1535.99888,437.646667 1536.04956,437.886667 1536.04956,438.14 C1536.04956,438.393333 1535.99888,438.633333 1535.89751,438.86 C1535.79615,439.086667 1535.661,439.283333 1535.49205,439.45 C1535.32311,439.616667 1535.12038,439.75 1534.88386,439.85 C1534.64735,439.95 1534.40069,440 1534.1439,440 C1533.88711,440 1533.64384,439.95 1533.41408,439.85 C1533.18432,439.75 1532.98496,439.616667 1532.81602,439.45 C1532.64708,439.283333 1532.51193,439.086667 1532.41056,438.86 C1532.3092,438.633333 1532.25852,438.393333 1532.25852,438.14 C1532.25852,437.886667 1532.3092,437.646667 1532.41056,437.42 C1532.51193,437.193333 1532.64708,436.996667 1532.81602,436.83 C1532.98496,436.663333 1533.18432,436.533333 1533.41408,436.44 C1533.64384,436.346667 1533.88711,436.3 1534.1439,436.3 Z M1537.54976,424.94 C1537.92819,424.94 1538.22215,424.99 1538.43163,425.09 C1538.64112,425.19 1538.78979,425.313333 1538.87764,425.46 C1538.96549,425.606667 1539.00603,425.763333 1538.99928,425.93 C1538.99252,426.096667 1538.96887,426.24 1538.92832,426.36 C1538.88777,426.48 1538.8033,426.726667 1538.67491,427.1 C1538.54651,427.473333 1538.40122,427.883333 1538.23904,428.33 C1538.07686,428.776667 1537.91805,429.22 1537.76263,429.66 C1537.6072,430.1 1537.48894,430.446667 1537.40785,430.7 C1537.23215,431.233333 1537.00915,431.603333 1536.73884,431.81 C1536.46853,432.016667 1536.13741,432.12 1535.74547,432.12 L1535.05619,432.12 L1533.73844,432.12 L1532.01524,432.12 L1530.12986,432.12 L1525.10216,432.12 L1525.40626,433.92 L1535.62383,433.92 C1536.27256,433.92 1536.59693,434.193333 1536.59693,434.74 C1536.59693,435.006667 1536.53273,435.236667 1536.40434,435.43 C1536.27594,435.623333 1536.02253,435.72 1535.6441,435.72 L1534.671,435.72 L1532.78561,435.72 L1530.45422,435.72 L1528.08229,435.72 L1526.13608,435.72 L1525.02107,435.72 C1524.75076,435.72 1524.52438,435.66 1524.34193,435.54 C1524.15947,435.42 1524.00742,435.263333 1523.88578,435.07 C1523.76415,434.876667 1523.66616,434.666667 1523.59183,434.44 C1523.51749,434.213333 1523.46005,434 1523.41951,433.8 C1523.40599,433.72 1523.36882,433.526667 1523.308,433.22 C1523.24719,432.913333 1523.17285,432.53 1523.085,432.07 C1522.99715,431.61 1522.89917,431.096667 1522.79104,430.53 C1522.68292,429.963333 1522.5748,429.393333 1522.46668,428.82 C1522.20989,427.473333 1521.91931,425.973333 1521.59494,424.32 L1520.07447,424.32 C1519.87174,424.32 1519.7028,424.27 1519.56764,424.17 C1519.43249,424.07 1519.32099,423.95 1519.23314,423.81 C1519.14529,423.67 1519.08447,423.52 1519.05068,423.36 C1519.01689,423.2 1519,423.053333 1519,422.92 C1519,422.653333 1519.09123,422.433333 1519.27368,422.26 C1519.45614,422.086667 1519.7028,422 1520.01365,422 L1520.45965,422 L1520.86511,422 L1521.37194,422 L1522.06122,422 C1522.33152,422 1522.54777,422.04 1522.70995,422.12 C1522.87214,422.2 1523.00053,422.3 1523.09514,422.42 C1523.18975,422.54 1523.25732,422.666667 1523.29787,422.8 C1523.33841,422.933333 1523.3722,423.046667 1523.39923,423.14 C1523.42626,423.246667 1523.45329,423.396667 1523.48032,423.59 C1523.50735,423.783333 1523.53439,423.98 1523.56142,424.18 C1523.60196,424.42 1523.64251,424.673333 1523.68305,424.94 L1537.54976,424.94 Z" id="购物车"></path>
        </g>
    </g>
</svg>
