<?xml version="1.0" encoding="UTF-8"?>
<svg width="118px" height="36px" viewBox="0 0 118 36" version="1.1" xmlns="http://www.w3.org/2000/svg" xmlns:xlink="http://www.w3.org/1999/xlink">
    <!-- Generator: Sketch 49.3 (51167) - http://www.bohemiancoding.com/sketch -->
    <title>Page 1</title>
    <desc>Created with Sketch.</desc>
    <defs>
        <polygon id="path-1" points="0.117024958 0.110331818 11.7934334 0.110331818 11.7934334 12.0341045 0.117024958 12.0341045"></polygon>
        <polygon id="path-3" points="0 35.9484545 117.854142 35.9484545 117.854142 0 0 0"></polygon>
    </defs>
    <g id="Page-1" stroke="none" stroke-width="1" fill="none" fill-rule="evenodd">
        <g id="Apple-TV" transform="translate(-377.000000, -72.000000)">
            <g id="Page-1" transform="translate(377.000000, 72.000000)">
                <path d="M50.619055,11.1459682 C51.3584951,10.4253545 51.9449133,9.6129 52.3783096,8.7219 L49.5100938,8.7219 C49.420947,8.87899091 49.3316013,9.01010455 49.2424546,9.14121818 C49.6119757,9.90110455 50.0710415,10.5695591 50.619055,11.1459682 Z M48.9111393,17.5533545 L52.4549201,17.5533545 L52.4549201,14.7230591 L48.9111393,14.7230591 L48.9111393,17.5533545 Z M53.1177497,18.8244 L52.4549201,18.8244 L52.4549201,18.2085136 L48.9111393,18.2085136 L48.9111393,18.8244 L48.2483096,18.8244 L48.2483096,14.0681045 L53.1177497,14.0681045 L53.1177497,18.8244 Z M50.2367987,7.00535455 C50.1221815,7.37210455 49.994431,7.72596818 49.8416081,8.06674091 L53.130286,8.06674091 L53.130286,8.60387727 C52.658684,9.73092273 51.9831191,10.7397409 51.1163265,11.61765 C51.9831191,12.3775364 53.0536755,12.9672409 54.3031224,13.3734682 L53.9079319,13.9498773 C52.607743,13.5176727 51.511517,12.8886955 50.6317902,12.06315 C49.7524614,12.8232409 48.7071764,13.4651045 47.483399,14.0024455 L47.0500027,13.4258318 C48.2608459,12.9015818 49.2935946,12.2859 50.147453,11.5783773 C49.6249099,11.0150591 49.1915137,10.3858773 48.8345288,9.70453636 C48.477544,10.1369455 48.0825524,10.5431727 47.6489572,10.9101273 L47.2284951,10.3596955 C48.375861,9.41633182 49.1533079,8.25021818 49.5612337,6.88733182 L50.2367987,7.00535455 Z M43.9014125,10.7528318 L46.3234968,10.7528318 L46.3234968,8.18455909 L43.9014125,8.18455909 L43.9014125,10.7528318 Z M46.9863265,7.50321818 L46.9863265,11.4341727 L45.6861376,11.4341727 L45.6861376,13.7404227 L47.1136789,13.7404227 L47.1136789,14.4217636 L45.6861376,14.4217636 L45.6861376,17.1602182 C46.2850921,16.96365 46.858974,16.7539909 47.4197228,16.5445364 L47.4197228,17.2520591 C46.0938644,17.7630136 44.5387717,18.2477864 42.7542455,18.6932864 L42.5757531,17.9988545 C42.8051865,17.9464909 43.0473551,17.8808318 43.2895238,17.8284682 L43.2895238,12.9279682 L43.926883,12.9279682 L43.926883,17.6582864 C44.3093383,17.5533545 44.6788594,17.4617182 45.0358442,17.3567864 L45.0358442,11.4341727 L43.2385828,11.4341727 L43.2385828,7.50321818 L46.9863265,7.50321818 Z" id="Fill-1" fill="#050101"></path>
                <path d="M74.6072411,9.45556364 C73.6385666,10.3074955 72.5166712,11.0279045 71.2292175,11.6045182 C71.2292175,11.6570864 71.2292175,11.6963591 71.2421518,11.7487227 C72.5932816,12.3384273 73.8297943,13.0457455 74.9514907,13.8714955 L74.5563002,14.4871773 C73.4853457,13.6487455 72.3893187,12.9672 71.2801585,12.4431545 C71.4077099,14.2906091 71.6244081,15.5616545 71.9559224,16.2432 C72.4784654,17.3567455 73.0648836,17.9202682 73.7277133,17.94645 C73.9316762,17.9202682 74.1101686,17.7762682 74.2631906,17.50095 C74.4032782,17.19945 74.5180944,16.5575864 74.6199764,15.5878364 L75.2700708,15.8236773 C75.1679899,16.9638136 74.9387555,17.7762682 74.5817707,18.2739273 C74.3139325,18.5492455 74.0462934,18.69345 73.7786543,18.69345 C72.8354503,18.6801545 72.0578044,18.0249955 71.4331804,16.7279727 C70.7958212,15.4305409 70.4772411,12.6789955 70.4772411,8.47292727 L63.7337302,8.47292727 L63.7337302,7.75231364 L71.1655413,7.75231364 L71.1655413,8.43365455 C71.1655413,9.32465455 71.1782766,10.1502 71.203747,10.8969955 C72.299973,10.37295 73.3070523,9.70449545 74.2122496,8.89224545 L74.6072411,9.45556364 Z" id="Fill-3" fill="#050101"></path>
                <path d="M91.443911,8.97087273 L90.8322212,9.29835 C90.4497659,8.47280455 90.0418401,7.7391 89.6084438,7.11032727 L90.245803,6.79573636 C90.6791993,7.46398636 91.0743899,8.1846 91.443911,8.97087273 Z M88.4738132,9.12816818 L87.8621234,9.42946364 C87.4287272,8.64319091 86.9823966,7.94875909 86.4982583,7.33287273 L87.1226833,7.03157727 C87.6072196,7.66055455 88.0533511,8.36807727 88.4738132,9.12816818 Z M96.1223224,12.3908727 L95.4338233,12.3908727 L95.4338233,10.3204636 L86.2304202,10.3204636 L86.2304202,12.3908727 L85.5421201,12.3908727 L85.5421201,9.63912273 L92.8207103,9.63912273 C93.4198637,8.77430455 93.9296715,7.83073636 94.3503325,6.83500909 L95.0388317,7.09703182 C94.5670307,8.10605455 94.0826934,8.95778182 93.5726867,9.63912273 L96.1223224,9.63912273 L96.1223224,12.3908727 Z M94.2739211,11.6569636 L94.2739211,12.2990318 C93.4071285,12.8756455 92.4257187,13.4389636 91.3292938,13.9763045 L91.3292938,14.7885545 L96.2751454,14.7885545 L96.2751454,15.4698955 L91.3292938,15.4698955 L91.3292938,17.8285091 C91.3292938,18.4836682 90.9979784,18.8242364 90.3606192,18.8242364 L88.7541875,18.8242364 L88.5758941,18.1561909 C89.0474961,18.1692818 89.5577019,18.1823727 90.1184506,18.1823727 C90.4754354,18.1823727 90.6537288,17.9858045 90.6537288,17.5926682 L90.6537288,15.4698955 L85.3890981,15.4698955 L85.3890981,14.7885545 L90.6537288,14.7885545 L90.6537288,13.6224409 C91.8520358,13.0722136 92.7188283,12.6267136 93.2668418,12.2990318 L87.4159919,12.2990318 L87.4159919,11.6569636 L94.2739211,11.6569636 Z" id="Fill-5" fill="#050101"></path>
                <g id="Group-9" transform="translate(106.060708, 6.698455)">
                    <mask id="mask-2" fill="white">
                        <use xlink:href="#path-1"></use>
                    </mask>
                    <g id="Clip-8"></g>
                    <path d="M10.9139255,1.80069545 L10.3911835,2.03653636 C10.1108091,1.38137727 9.79203002,0.804763636 9.46051568,0.333081818 L9.99599292,0.110331818 C10.3531767,0.634377273 10.6588226,1.1979 10.9139255,1.80069545 Z M4.82070793,5.75783182 C4.76976695,8.36537727 4.18334874,10.4617636 3.08712277,12.0341045 L2.57711602,11.5755136 C3.58419528,10.1735591 4.10693727,8.23426364 4.15787825,5.75783182 L4.15787825,2.28546818 L7.8419457,2.28546818 C7.81627622,1.63030909 7.81627622,0.948968182 7.81627622,0.241240909 L8.47930489,0.241240909 C8.47930489,0.97515 8.47930489,1.65649091 8.50457639,2.28546818 L11.4364685,2.28546818 L11.4364685,2.95371818 L8.53024587,2.95371818 C8.59392209,4.63078636 8.72127454,5.96749091 8.89976695,6.97651364 C8.95090691,7.31708182 9.02731838,7.63146818 9.10372985,7.94605909 C9.63900809,6.89776364 10.0471329,5.66599091 10.3531767,4.26403636 L10.939197,4.51317273 C10.5442054,6.19024091 10.0087282,7.63146818 9.33336223,8.81067273 C9.48618516,9.30874091 9.63900809,9.74115 9.81750051,10.0948091 C10.1490148,10.7368773 10.4293892,11.0645591 10.6335511,11.0645591 C10.8627855,11.0514682 11.0540132,10.3701273 11.2197703,9.00744545 L11.7934533,9.33492273 C11.5640199,11.0645591 11.2197703,11.9424682 10.7736388,11.9424682 C10.365514,11.9424682 9.91958145,11.5362409 9.46051568,10.7499682 C9.25655278,10.3832182 9.06532513,9.9639 8.89976695,9.49221818 C8.14779056,10.5797864 7.2553285,11.4053318 6.22297774,11.9817409 L5.81485295,11.4313091 C6.96221889,10.8156273 7.90562192,9.91153636 8.65759831,8.71903636 C8.53024587,8.24735455 8.40269444,7.74949091 8.30061349,7.19905909 C8.0711801,6.05912727 7.93109241,4.64408182 7.86701821,2.95371818 L4.82070793,2.95371818 L4.82070793,5.02392273 L7.07703508,5.02392273 C7.07703508,7.33017273 6.98788836,8.74542273 6.8221312,9.24328636 C6.64363879,9.74115 6.3248597,9.99028636 5.89166239,10.0162636 L5.01193558,10.0162636 L4.84617841,9.42676364 L5.72570624,9.42676364 C6.03175008,9.38728636 6.22297774,9.15165 6.31212445,8.71903636 C6.38853592,8.27353636 6.42674165,7.25142273 6.45241113,5.64001364 L4.82070793,5.64001364 L4.82070793,5.75783182 Z M1.44268432,3.67453636 L1.44268432,0.280513636 L2.13098449,0.280513636 L2.13098449,3.67453636 L3.3292914,3.67453636 L3.3292914,4.35587727 L2.13098449,4.35587727 L2.13098449,8.6274 C2.5134398,8.43083182 2.89589511,8.22117273 3.26541619,7.99842273 L3.26541619,8.69285455 C2.34768263,9.24328636 1.35353761,9.68878636 0.282583137,10.0555364 L0.117024958,9.37419545 C0.575891737,9.24328636 1.00928803,9.09908182 1.44268432,8.92869545 L1.44268432,4.35587727 L0.231841147,4.35587727 L0.231841147,3.67453636 L1.44268432,3.67453636 Z" id="Fill-7" fill="#050101" mask="url(#mask-2)"></path>
                </g>
                <path d="M25.5012725,32.4141955 C25.5012725,32.4141955 25.3771039,32.6074909 23.6315794,32.6166955 L20.587458,32.6197636 C20.587458,32.6197636 19.7095221,32.8128545 19.744942,32.1988091 C19.744942,32.1988091 19.643657,31.8253091 19.9351747,31.7510591 C19.9351747,31.7510591 20.0862067,31.6806955 20.2123653,31.7211955 C20.2123653,31.7211955 19.6036604,31.2077864 20.2792253,30.1194 C20.2792253,30.1194 20.3580246,29.8234227 20.2280853,29.4351955 C20.2280853,29.4351955 19.9574614,28.4552182 19.8022506,28.2298091 C19.8022506,28.2298091 19.6548003,28.2817636 19.5503315,28.0745591 C19.5503315,28.0745591 19.4930229,28.2707182 19.172453,28.1711045 C19.172453,28.1711045 18.9424226,28.3635818 18.7551747,28.1938091 C18.7551747,28.1938091 18.564544,28.2124227 18.4564934,28.1275364 L18.4164968,27.9647182 L18.2726283,27.8798318 L18.3229723,27.7354227 L18.1679605,27.5173773 L18.2791949,27.2140364 L18.1136368,27.0994909 L18.2754142,26.8920818 C18.2754142,26.8920818 18.2403922,26.7143318 18.1804968,26.4510818 C18.0314546,25.7957182 17.7277987,24.6099682 17.4225508,24.3148091 C17.1180988,24.6105818 16.8166317,25.7967409 16.6687835,26.4525136 C16.609286,26.7161727 16.574861,26.8939227 16.574861,26.8939227 L16.7370364,27.1007182 L16.5714782,27.2156727 L16.6835086,27.5188091 L16.5288948,27.7372636 L16.5794378,27.8814682 L16.4353703,27.9667636 L16.3959707,28.1295818 C16.2881191,28.2146727 16.0974884,28.1964682 16.0974884,28.1964682 C15.9106384,28.36665 15.6800111,28.1745818 15.6800111,28.1745818 C15.3598391,28.2748091 15.3021325,28.0788545 15.3021325,28.0788545 C15.1980617,28.2860591 15.0502135,28.2343091 15.0502135,28.2343091 C14.8957987,28.4601273 14.6269656,29.4407182 14.6269656,29.4407182 C14.4976233,29.82915 14.5772185,30.1251273 14.5772185,30.1251273 C15.2545744,31.2118773 14.6468644,31.7267182 14.6468644,31.7267182 C14.7728239,31.6858091 14.924055,31.7559682 14.924055,31.7559682 C15.2157717,31.8298091 15.1152826,32.2035136 15.1152826,32.2035136 C15.1516975,32.8175591 14.2735626,32.6259 14.2735626,32.6259 L11.2290432,32.6289682 C9.48391669,32.6232409 9.35935008,32.43015 9.35935008,32.43015 C9.0692253,31.76865 9.52530624,31.6514455 9.52530624,31.6514455 C9.56410894,30.9611045 10.0064597,30.9559909 10.0064597,30.9559909 C10.439458,30.7745591 10.5262169,30.8612864 10.5262169,30.8612864 C10.7534614,30.5278773 11.1355187,30.6921273 11.1355187,30.6921273 L11.8524732,30.3208773 C11.8331713,30.1742182 11.8791376,30.1026273 11.8791376,30.1026273 C12.1045912,29.8250591 12.3091511,29.9991273 12.3091511,29.9991273 C12.3977008,29.9635364 12.5268442,29.8395818 12.5268442,29.8395818 C13.0653062,28.7743091 13.154055,27.7982182 13.154055,27.7982182 C12.6746924,27.4965136 12.5761933,27.7865591 12.5761933,27.7865591 L12.0868813,27.4464 C12.0651916,27.4302409 12.0669825,27.4059 12.0669825,27.4059 L12.0805137,27.0471273 L11.8339673,27.0473318 L12.0425069,26.6437636 L11.9380381,26.4735818 L12.1861764,26.1690136 L12.091259,26.0111045 C12.1308577,26.0029227 12.7361798,25.7022409 12.7361798,25.7022409 C12.2900482,25.5547636 12.7437413,24.8316955 12.7437413,24.8316955 C13.4189083,23.6803091 13.6791848,22.4826955 13.6791848,22.4826955 C13.1789285,22.3313318 13.5840685,21.6735136 13.5840685,21.6735136 C13.8654378,21.2824227 14.6265676,17.3942182 14.6265676,17.3942182 C12.7453332,18.1273091 12.597485,20.2157182 12.597485,20.2157182 C12.8237346,20.2791273 12.9369589,20.4853091 12.9369589,20.4853091 C13.1819133,20.9612864 12.8947734,21.6726955 12.8947734,21.6726955 C12.8076165,21.6602182 12.732399,21.7001045 12.732399,21.7001045 C12.5314209,21.7901045 12.682254,21.95865 12.682254,21.95865 C12.7592624,22.1226955 12.4581933,22.3415591 12.4581933,22.3415591 C11.956743,23.0343545 11.2234715,22.3427864 11.2234715,22.3427864 C10.2842472,22.3497409 10.1063518,21.5362636 10.1063518,21.5362636 C9.66837875,20.5894227 10.878426,19.5801955 10.878426,19.5801955 C11.1197987,18.7783773 11.7864091,17.7454227 11.7864091,17.7454227 C13.25534,15.5823545 14.9682304,15.4653545 14.9682304,15.4653545 L14.9797717,15.1434 C15.918996,15.0939 16.0899268,14.7537409 16.0899268,14.7537409 L15.1739841,14.2769455 C11.1225845,14.3182636 10.6641157,9.7434 10.6641157,9.7434 C10.6064091,6.36349091 12.5885305,5.33728636 12.5885305,5.33728636 C13.4105508,1.69003636 17.401657,1.67142273 17.401657,1.67142273 C17.401657,1.67142273 21.3927632,1.68226364 22.2215491,5.32787727 C22.2215491,5.32787727 24.2054614,6.34999091 24.1539234,9.73010455 C24.1539234,9.73010455 23.7042101,14.3059909 19.6528105,14.27265 L18.7376637,14.7510818 C18.7376637,14.7510818 18.9091916,15.0910364 19.8486148,15.1386955 L19.8605541,15.4604455 C19.8605541,15.4604455 21.5738425,15.5739682 23.0467531,17.7343773 C23.0467531,17.7343773 23.7151545,18.7659 23.9581191,19.5673091 C23.9581191,19.5673091 25.1701562,20.5740818 24.733974,21.5217409 C24.733974,21.5217409 24.5574715,22.3356273 23.6180482,22.3305136 C23.6180482,22.3305136 22.8861696,23.0235136 22.3835255,22.3317409 C22.3835255,22.3317409 22.0820583,22.1134909 22.1586688,21.9494455 C22.1586688,21.9494455 22.3093029,21.7802864 22.1079268,21.6906955 C22.1079268,21.6906955 22.0329083,21.6512182 21.9455524,21.6636955 C21.9455524,21.6636955 21.6572185,20.9529 21.9011781,20.4765136 C21.9011781,20.4765136 22.0142034,20.2701273 22.240055,20.2061045 C22.240055,20.2061045 22.088625,18.1181045 20.2059976,17.3886955 C20.2059976,17.3886955 20.9742911,21.2752636 21.2562573,21.6659455 C21.2562573,21.6659455 21.6627902,22.32315 21.1627329,22.4753318 C21.1627329,22.4753318 21.4253973,23.6725364 22.1025541,24.8224909 C22.1025541,24.8224909 22.5576401,25.5447409 22.1119066,25.6930364 C22.1119066,25.6930364 22.7178256,25.9924909 22.7572253,26.0006727 L22.6625069,26.1587864 L22.9114411,26.4625364 L22.8071713,26.6331273 L23.0165069,27.0362864 L22.7699605,27.0364909 L22.7840887,27.3952636 C22.7840887,27.3952636 22.7860786,27.4198091 22.7643889,27.4359682 L22.2756739,27.7769455 C22.2756739,27.7769455 22.1767767,27.4873091 21.6978121,27.7898318 C21.6978121,27.7898318 21.7885508,28.7657182 22.3288037,29.8297636 C22.3288037,29.8297636 22.458146,29.9535136 22.5466958,29.9893091 C22.5466958,29.9893091 22.7510567,29.8144227 22.9769083,30.0917864 C22.9769083,30.0917864 23.0232725,30.1629682 23.0041696,30.3098318 L23.7219201,30.6798545 C23.7219201,30.6798545 24.1035794,30.5147864 24.3314209,30.8475818 C24.3314209,30.8475818 24.4181798,30.7608545 24.8513771,30.9412636 C24.8513771,30.9412636 25.2937278,30.9455591 25.3337245,31.6359 C25.3337245,31.6359 25.7900044,31.7522864 25.5012725,32.4141955 M17.486028,8.18181818e-05 C7.8285339,8.18181818e-05 0.000139291737,8.04730909 0.000139291737,17.9743091 C0.000139291737,27.9013091 7.8285339,35.9483318 17.486028,35.9483318 C27.1431241,35.9483318 34.9719167,27.9013091 34.9719167,17.9743091 C34.9719167,8.04730909 27.1431241,8.18181818e-05 17.486028,8.18181818e-05" id="Fill-10" fill="#050101"></path>
                <polygon id="Fill-12" fill="#050101" points="43.6414543 24.3527318 43.6414543 28.6293682 46.5182266 28.6293682 46.5182266 29.1014591 43.0773228 29.1014591 43.0773228 24.3527318"></polygon>
                <path d="M52.381971,24.3527318 L52.381971,27.2859136 C52.381971,27.7514591 52.4864398,28.1036864 52.7095056,28.3432091 C52.9391379,28.5892773 53.3012965,28.7158909 53.7957821,28.7158909 C54.2835022,28.7158909 54.6456607,28.5892773 54.8824567,28.3432091 C55.0983589,28.1036864 55.2097922,27.7514591 55.2097922,27.2859136 L55.2097922,24.3527318 L55.7810874,24.3527318 L55.7810874,27.2793682 C55.7810874,27.8977091 55.6137383,28.3698 55.2866017,28.6958455 C54.9451379,29.0284364 54.4506523,29.1945273 53.7957821,29.1945273 C53.141111,29.1945273 52.6466253,29.0284364 52.3123251,28.7023909 C51.978025,28.3698 51.8108749,27.8977091 51.8108749,27.2793682 L51.8108749,24.3527318 L52.381971,24.3527318 Z" id="Fill-14" fill="#050101"></path>
                <polygon id="Fill-16" fill="#050101" points="64.751117 24.3527318 64.751117 24.8250273 61.9929417 24.8250273 61.9929417 26.4210955 64.6048607 26.4210955 64.6048607 26.8933909 61.9929417 26.8933909 61.9929417 29.1014591 61.4218455 29.1014591 61.4218455 24.3527318"></polygon>
                <polygon id="Fill-18" fill="#050101" points="73.4078796 24.3527318 73.4078796 24.8250273 70.6497042 24.8250273 70.6497042 26.4210955 73.2616233 26.4210955 73.2616233 26.8933909 70.6497042 26.8933909 70.6497042 29.1014591 70.0786081 29.1014591 70.0786081 24.3527318"></polygon>
                <polygon id="Fill-20" fill="#050101" points="78.9583767 24.3527318 80.5393379 26.6671636 82.1206971 24.3527318 82.8099922 24.3527318 80.825085 27.1728 80.825085 29.1014591 80.2539889 29.1014591 80.2539889 27.1728 78.2686836 24.3527318"></polygon>
                <path d="M91.5224118,24.6787159 C91.8986985,24.9579205 92.1215653,25.3371477 92.1910121,25.8092386 L91.6410088,25.8092386 C91.5711639,25.4635568 91.3900847,25.1974432 91.1117002,25.0111023 C90.8398823,24.8315114 90.5125467,24.7451932 90.1225298,24.7451932 C89.5444691,24.7451932 89.0985366,24.9380795 88.7851302,25.3236477 C88.4924185,25.6828295 88.3463612,26.155125 88.3463612,26.7470795 C88.3463612,27.3390341 88.485454,27.811125 88.7781656,28.1570114 C89.0846074,28.5227386 89.5233764,28.7090795 90.1086007,28.7090795 C90.5055821,28.7090795 90.8398823,28.6092614 91.1184658,28.4098295 C91.4109784,28.1971023 91.6129514,27.8843523 91.7104556,27.4719886 L92.260857,27.4719886 C92.1492246,28.0240568 91.8915349,28.4562614 91.4806243,28.7622614 C91.097572,29.0484205 90.6379093,29.1946705 90.1086007,29.1946705 C89.3353325,29.1946705 88.7433427,28.9486023 88.332432,28.4630114 C87.9561454,28.0240568 87.7750661,27.4521477 87.7750661,26.7470795 C87.7750661,26.0420114 87.9631099,25.4635568 88.3463612,25.0111023 C88.7642364,24.5056705 89.3631909,24.2596023 90.1294944,24.2596023 C90.6796968,24.2596023 91.1463241,24.3993068 91.5224118,24.6787159" id="Fill-22" fill="#050101"></path>
                <mask id="mask-4" fill="white">
                    <use xlink:href="#path-3"></use>
                </mask>
                <g id="Clip-25"></g>
                <polygon id="Fill-24" fill="#050101" mask="url(#mask-4)" points="97.7346442 29.1015 98.3016442 29.1015 98.3016442 24.3527727 97.7346442 24.3527727"></polygon>
                <polygon id="Fill-26" fill="#050101" mask="url(#mask-4)" points="107.673289 24.3527318 107.673289 24.8250273 105.918014 24.8250273 105.918014 29.1014591 105.353882 29.1014591 105.353882 24.8250273 103.598408 24.8250273 103.598408 24.3527318"></polygon>
                <polygon id="Fill-27" fill="#050101" mask="url(#mask-4)" points="113.153822 24.3527318 114.734783 26.6671636 116.316142 24.3527318 117.005437 24.3527318 115.02053 27.1728 115.02053 29.1014591 114.449434 29.1014591 114.449434 27.1728 112.464128 24.3527318"></polygon>
            </g>
        </g>
    </g>
</svg>