<?xml version="1.0" encoding="UTF-8"?>
<svg width="40px" height="40px" viewBox="0 0 40 40" version="1.1" xmlns="http://www.w3.org/2000/svg" xmlns:xlink="http://www.w3.org/1999/xlink">
    <!-- Generator: Sketch 48.2 (47327) - http://www.bohemiancoding.com/sketch -->
    <title>Fill 1@3x</title>
    <desc>Created with Sketch.</desc>
    <defs></defs>
    <g id="学位课程" stroke="none" stroke-width="1" fill="none" fill-rule="evenodd" transform="translate(-378.000000, -20.000000)">
        <g id="nav" fill="#FFFFFF">
            <g id="logo" transform="translate(378.000000, 20.000000)">
                <path d="M29.7551866,36.9440711 C29.7334346,36.9949622 29.7018325,37.0318993 29.65012,37.0466741 C29.5339722,37.0803279 29.4182348,37.1213691 29.2996245,37.1398377 C29.122735,37.1673353 28.9433831,37.1833414 28.7648519,37.1948329 C28.2563461,37.2272555 27.7478402,37.2444928 27.2381031,37.2412095 C26.1989288,37.2342325 25.1593442,37.2330012 24.1201699,37.2313596 C24.026595,37.2313596 23.93302,37.2490073 23.8394451,37.2539323 C23.7064702,37.2613197 23.5730849,37.2728112 23.4409308,37.2658342 C23.3608996,37.2617301 23.2784059,37.2362845 23.204531,37.2034516 C23.0559603,37.136144 22.9800332,37.014662 22.9746978,36.8496763 C22.9730562,36.7991956 22.9644374,36.7491253 22.9566395,36.699055 C22.912725,36.4146394 23.0539082,36.2352893 23.3416101,36.211075 C23.3686975,36.2090229 23.3961954,36.2106646 23.4236933,36.2086125 C23.4483183,36.2069709 23.4725329,36.2028667 23.5004412,36.199173 C23.4922329,36.1823461 23.4905912,36.1741379 23.4856662,36.1688025 C23.2550122,35.9127053 23.2028893,35.6085899 23.2500872,35.2794394 C23.2931809,34.9806593 23.4076871,34.7073248 23.5513328,34.4438402 C23.5862182,34.3798159 23.6104328,34.3067626 23.6219244,34.2353509 C23.6502432,34.0580528 23.6141265,33.8823964 23.5763682,33.7108441 C23.484435,33.2930445 23.3313497,32.8933031 23.1881143,32.4915096 C23.1643102,32.4254332 23.1253206,32.3655131 23.0920769,32.3031304 C23.0674519,32.2563434 23.0325665,32.2296666 22.9771603,32.2144814 C22.9238062,32.200117 22.8766083,32.1586653 22.8306417,32.1241907 C22.8019125,32.1020285 22.7797501,32.0708371 22.7534834,32.0421083 C22.682071,32.1664632 22.6012189,32.209146 22.4670128,32.1763131 C22.3619462,32.1504571 22.2700129,32.1615382 22.1719234,32.2054523 C22.0052944,32.2805578 21.8727299,32.2436207 21.7582237,32.1057222 C21.7459112,32.0905369 21.7340092,32.0749413 21.720055,32.0609872 C21.7171821,32.0581144 21.7069217,32.0622185 21.6991238,32.0634497 C21.6970717,32.0954619 21.6950196,32.127474 21.6925571,32.1676944 C21.6215551,32.1467634 21.560403,32.1328094 21.5029447,32.1094159 C21.4787302,32.0991556 21.4487698,32.0704267 21.4454864,32.0470332 C21.4319427,31.9460718 21.3744844,31.8869725 21.2846032,31.8508562 C21.2702387,31.8451105 21.2566949,31.8364918 21.2546428,31.8352606 C21.268597,31.756051 21.298147,31.6912059 21.2846032,31.6366211 C21.2710595,31.5803946 21.2152429,31.5344284 21.1783054,31.4839478 C21.1733804,31.4777916 21.1692762,31.471225 21.1635304,31.4654792 C21.1253617,31.4281317 21.1224888,31.3875009 21.1425992,31.337841 C21.1783054,31.2479608 21.2082658,31.1552076 21.2415095,31.0620441 C21.18282,31.0127946 21.1298763,30.9684701 21.0748805,30.9225039 C21.089245,30.9003417 21.0974534,30.8814627 21.1109971,30.8683295 C21.2275554,30.7525933 21.2702387,30.6224926 21.1918491,30.4677673 C21.0707763,29.8435304 20.883216,29.2369412 20.7087891,28.6266583 C20.6398391,28.3857464 20.5474954,28.1518115 20.4182143,27.9351138 C20.3763518,27.8653438 20.3353102,27.7922904 20.2483019,27.7561741 C20.1682707,27.7980362 20.1223041,27.8706791 20.0792104,27.9449637 C19.9569063,28.156326 19.8678459,28.3824631 19.798896,28.6159876 C19.6031274,29.2771616 19.4180296,29.9412085 19.2719214,30.6155156 C19.2604297,30.6688692 19.2694589,30.7041647 19.3006505,30.7435642 C19.3457963,30.8010219 19.3868379,30.8609421 19.4315733,30.9225039 C19.367138,30.9750367 19.3133734,31.0189508 19.2608401,31.0616336 C19.2912109,31.1457681 19.312963,31.2216944 19.3457963,31.2922853 C19.3835546,31.3735469 19.3782192,31.4408545 19.3117318,31.5036475 C19.2210297,31.5890133 19.1832714,31.6866914 19.2501693,31.8053005 C19.2530422,31.8102254 19.2477068,31.8196649 19.2452443,31.8340293 C19.2156943,31.8512666 19.1787568,31.8668623 19.1496173,31.891487 C19.121709,31.9152909 19.0843611,31.9468927 19.0814882,31.978084 C19.0720486,32.0794558 19.0133591,32.1196762 18.9238883,32.1360927 C18.8968008,32.1406072 18.871355,32.1520987 18.8446779,32.1578445 C18.8348279,32.160307 18.8229259,32.1545612 18.8130759,32.1529196 C18.8089717,32.1188554 18.805278,32.087664 18.7999425,32.0433395 C18.7749071,32.0708371 18.7584905,32.0831495 18.7498717,32.099566 C18.6915926,32.214071 18.5877573,32.2415686 18.4736615,32.2366436 C18.4170241,32.2341812 18.3571033,32.2189959 18.3058012,32.195192 C18.2270013,32.1582549 18.1502534,32.1459426 18.0673493,32.1709777 C17.929039,32.2132502 17.8219203,32.1689256 17.7505079,32.0613977 C17.6807371,32.1131096 17.6191747,32.1837005 17.5432476,32.2079148 C17.4660893,32.2329499 17.4201227,32.2723495 17.3922144,32.3388363 C17.3257269,32.4972554 17.2580082,32.6556745 17.2009604,32.8177873 C17.0737313,33.1797708 16.9407564,33.5409335 16.891096,33.9246688 C16.864419,34.1294645 16.854569,34.3317977 16.9871334,34.5115582 C17.0056022,34.536183 17.0166834,34.5665535 17.0306376,34.5948719 C17.1689479,34.8796979 17.2694999,35.1747843 17.2682687,35.496137 C17.2678582,35.7354073 17.2013708,35.9521049 17.0445917,36.1372008 C17.0306376,36.1540277 17.0187355,36.1729066 16.996573,36.2036876 C17.0688063,36.2073813 17.1262646,36.2069709 17.1829021,36.2135374 C17.4599331,36.2455496 17.5904455,36.4203852 17.5457101,36.6949509 C17.5391435,36.7372234 17.5329872,36.7803166 17.5313456,36.8229995 C17.5227268,37.0438012 17.4168394,37.1833414 17.2046541,37.2424407 C17.031048,37.2908694 16.8553898,37.2793778 16.6793212,37.257626 C16.5898504,37.2465448 16.4999692,37.2321804 16.4104985,37.23177 C15.6023886,37.2284867 14.7942788,37.2227409 13.986169,37.2293075 C13.355359,37.2342325 12.7241386,37.252701 12.0937391,37.2174056 C11.8573393,37.2046828 11.6217603,37.1718498 11.3853604,37.1566646 C11.2437668,37.1480459 11.1075086,37.1180858 10.9696087,37.0881258 C10.8276046,37.0573448 10.742238,36.981829 10.7094047,36.839416 C10.6966818,36.7844208 10.6654901,36.7335296 10.6429172,36.6809969 L10.6429172,36.4454203 C10.6593339,36.4199748 10.6794443,36.3957604 10.6913464,36.3678524 C10.7311568,36.2734576 10.7960025,36.2036876 10.887115,36.157311 C10.9146129,36.143357 10.9408795,36.1273509 10.9449837,36.1248884 C10.9831524,35.9713943 11.0036732,35.834727 11.0512815,35.7079097 C11.1259773,35.5084494 11.274548,35.3812216 11.4846812,35.3290992 C11.5565041,35.3114515 11.6270957,35.2868268 11.6976873,35.2638437 C11.8442059,35.2166463 11.991135,35.1772468 12.1589953,35.2100797 C12.1708974,35.1936632 12.1827995,35.1727322 12.1996265,35.1563157 C12.3687181,34.9859947 12.5640763,34.9162246 12.7980136,35.0048736 C12.847674,35.0237526 12.889126,35.0114402 12.9326302,34.9900988 C13.1571279,34.8780563 13.3820361,34.767245 13.6065338,34.6552025 C13.6405984,34.6379652 13.6713796,34.6141613 13.7054442,34.5924094 C13.7054442,34.5484953 13.7017504,34.5090958 13.706265,34.470517 C13.7173462,34.3732493 13.7485379,34.2804962 13.841292,34.2357613 C13.9545669,34.1815869 14.0760502,34.1413665 14.202048,34.1988242 C14.2393959,34.2160615 14.2648417,34.213599 14.2989062,34.1930784 C14.4404999,34.1093543 14.5586998,34.0059305 14.6227248,33.8487426 C14.6567893,33.7654289 14.7002934,33.685809 14.7339476,33.6024953 C14.9371037,33.0952259 15.0885473,32.5731816 15.1845848,32.0351313 C15.2034639,31.9288345 15.2198806,31.821717 15.2391701,31.7063911 C15.1369765,31.6645291 15.0491474,31.6214358 14.9563933,31.5922966 C14.8070017,31.5455096 14.6608935,31.5356597 14.5586998,31.6994141 C14.3818103,31.5791634 14.2114876,31.4605543 14.037471,31.3481013 C13.9775502,31.3091122 13.9525148,31.2656085 13.9599023,31.1941968 C13.9705731,31.0899521 13.9734461,30.9848866 13.9804231,30.863815 L13.68164,30.863815 C13.7735733,30.6926731 13.8548357,30.5420519 13.9340461,30.3943035 C13.8901315,30.3269959 13.8519628,30.2687174 13.8092795,30.2030514 C13.9081899,30.0877256 14.0042273,29.9760935 14.1002647,29.864051 C14.0608647,29.8000267 14.0263898,29.7442106 13.9886315,29.6822384 C14.2393959,29.5566523 14.4946748,29.4626679 14.7437976,29.3350297 C14.5472081,29.2143685 14.4860561,29.0904241 14.5414623,28.8807034 C14.5812727,28.730903 14.6452977,28.5860275 14.7072705,28.4432041 C14.7462601,28.3537342 14.8074121,28.2741143 14.849685,28.1862861 C15.151341,27.5571242 15.4464304,26.9250895 15.6971948,26.2737654 C15.7591677,26.1132943 15.801851,25.9458461 15.8539739,25.7816813 C15.8785988,25.7049342 15.8687488,25.6462452 15.787076,25.6068457 C15.7423406,25.5855042 15.6988365,25.5526713 15.6660032,25.5153238 C15.6315282,25.4755138 15.5966428,25.4274956 15.5863824,25.3778357 C15.5629887,25.2703077 15.5633991,25.1594964 15.6011574,25.0536101 C15.6417886,24.9391051 15.6861136,24.8262418 15.727976,24.7125576 C15.7616302,24.6206253 15.8030822,24.530745 15.8256551,24.4363502 C16.0074696,23.678319 16.1970819,22.9219293 16.3600172,22.159794 C16.4613901,21.6849471 16.5192588,21.2014816 16.59929,20.7221202 C16.6079087,20.6695874 16.6280191,20.6170547 16.650592,20.5682156 C16.7507336,20.3519284 16.8541585,20.1368725 16.955121,19.9205852 C16.9653814,19.8988334 16.9662022,19.872567 16.9723585,19.8434278 C16.9493751,19.8471215 16.9374731,19.8471215 16.9268022,19.8508152 C16.8898648,19.8639484 16.8529273,19.8766711 16.8168107,19.8918564 C15.9680696,20.2411171 15.3963596,20.8760247 14.9986661,21.680843 C14.8509163,21.9800334 14.7712955,22.3063111 14.6896226,22.6293055 C14.6551476,22.7655623 14.6243664,22.9022296 14.5919435,23.0388968 C14.614106,23.05203 14.6264185,23.0614695 14.6403727,23.0676257 C14.8977037,23.1780265 15.0351932,23.3795389 15.0786973,23.6500005 C15.1144036,23.8736751 15.0996286,24.0965289 15.0516099,24.3160994 C15.0220599,24.4527667 14.9777349,24.5861506 14.9444912,24.7047598 C14.8525579,24.7326678 14.778683,24.7470322 14.7113747,24.7769923 C14.6292914,24.8131086 14.6083602,24.8771329 14.6374997,24.9620882 C14.6465289,24.9875337 14.6592518,25.0125689 14.6727956,25.0359624 C14.7076809,25.096293 14.7064497,25.1574444 14.673206,25.2153125 C14.6461185,25.2620995 14.614106,25.308476 14.5767581,25.3474652 C14.4897499,25.4373455 14.4002791,25.5259945 14.3071146,25.6093081 C14.1080626,25.7878374 13.8774086,25.8608908 13.6110484,25.808358 C13.4472923,25.7759355 13.2909236,25.7184778 13.1612321,25.6154643 C13.0376967,25.5177862 12.9047218,25.4898782 12.7528678,25.4730513 C12.2574952,25.4184665 11.8979705,25.1652422 11.7046644,24.6969619 C11.6673165,24.6066712 11.6373561,24.5130973 11.608627,24.4195233 C11.5064333,24.0842166 11.5536312,23.7604014 11.6919415,23.4456153 C11.8692413,23.0434113 12.1429891,22.7122087 12.4659867,22.4208161 C12.5402721,22.3539189 12.5800825,22.2816864 12.5952679,22.1844187 C12.6350783,21.9332465 12.7183928,21.6952074 12.8768135,21.4949263 C12.9724405,21.3730339 13.0463155,21.2421124 13.1152654,21.106266 C13.1456362,21.0467562 13.1772383,20.9880673 13.2092508,20.9297887 C13.6602984,20.1110165 14.221748,19.3817141 14.9465433,18.7853852 C15.5408262,18.2961739 16.2003653,17.9272134 16.9444501,17.7195449 C17.0831709,17.6809661 17.2255854,17.6542893 17.3688207,17.6210459 C17.3786707,17.5020264 17.3885207,17.3858798 17.3987811,17.2623457 C17.4496727,17.2549583 17.4952289,17.24675 17.5411955,17.2414147 C17.7829308,17.2143275 18.0238452,17.1782112 18.2536784,17.0961288 C18.3743408,17.0530355 18.4888469,16.9914737 18.6029427,16.9319639 C18.6411114,16.9122641 18.6842051,16.8851769 18.6874885,16.8408524 C18.3287846,16.6647856 17.9778786,16.4907709 17.6249205,16.3212706 C17.5859309,16.3028021 17.533808,16.3036229 17.4886622,16.3060854 C17.1455542,16.3245539 16.8073711,16.2921314 16.4737026,16.2116906 C15.7718906,16.0426008 15.1673473,15.6892359 14.6219039,15.2271118 C13.9783711,14.6816741 13.4641193,14.0274771 13.0122509,13.3191057 C12.7618969,12.9263413 12.5854179,12.5060792 12.4975888,12.0525738 C12.3543535,11.3175256 12.3178264,10.5755004 12.4019618,9.82855032 C12.477068,9.16409304 12.6510845,8.52877502 12.9523301,7.93121492 C13.3303236,7.18221274 13.8503212,6.55387173 14.5513123,6.08436022 C14.5985102,6.05275848 14.6206727,6.01828386 14.6247768,5.96164698 C14.6292914,5.89557063 14.643656,5.82990468 14.6576101,5.76505956 C14.7840184,5.17858059 15.0573557,4.66351333 15.4201638,4.19112894 C15.8039031,3.69124693 16.2684944,3.27837231 16.790544,2.9303428 C16.9924689,2.79572761 17.1984979,2.66152283 17.418481,2.56302392 C18.068991,2.27081046 18.7531551,2.08530417 19.4561983,1.97079918 C19.8707188,1.90349158 20.2860602,1.8636816 20.7079682,1.92072889 C21.4614927,2.02210069 22.1940859,2.19939875 22.8995916,2.48258313 C23.0411853,2.53922001 23.1835998,2.59914019 23.3141122,2.6771185 C23.5226037,2.80147338 23.7261702,2.93526774 23.9231701,3.07727035 C24.4554801,3.46141613 24.9171985,3.91697362 25.2816482,4.46610509 C25.5841251,4.92166258 25.8036979,5.41210511 25.8779832,5.95959492 C25.8849603,6.01171727 25.9017874,6.05152725 25.9510373,6.08394981 C26.605241,6.51898669 27.101024,7.09766783 27.4745029,7.78387696 C27.9440192,8.64738414 28.1377357,9.57943014 28.1463545,10.5549798 C28.1504586,11.0224393 28.1110587,11.4878467 28.0273337,11.9475083 C27.9538692,12.3501226 27.8319755,12.7383725 27.6243049,13.0950207 C27.380928,13.5124098 27.1080011,13.9096888 26.8018305,14.2835743 C26.3536558,14.8298329 25.8508957,15.3157609 25.2479941,15.6908776 C24.55398,16.1226312 23.805791,16.3536932 22.9812645,16.3048541 C22.934477,16.3019813 22.8823541,16.3212706 22.8384396,16.3422017 C22.5228294,16.4903604 22.2088609,16.6418025 21.894482,16.7924238 C21.8669841,16.805557 21.8407174,16.819511 21.8033695,16.8379795 C21.8308674,16.8675292 21.8472841,16.8950268 21.8719091,16.9102121 C21.9445527,16.9561782 22.016786,17.0046069 22.0951756,17.0386711 C22.3155691,17.1351179 22.5495065,17.1847778 22.7871376,17.2180212 C22.8938458,17.2332064 23.0005541,17.2479813 23.1076727,17.2631665 C23.1167019,17.394088 23.1253206,17.5098242 23.1327081,17.6144793 C23.3457142,17.6702954 23.545587,17.7125678 23.7384827,17.7745401 C24.634832,18.0630598 25.3932815,18.5723813 26.0515893,19.2380698 C26.6360222,19.8294737 27.0924052,20.5111683 27.4638321,21.2519623 C27.486405,21.297518 27.508157,21.3455363 27.5409903,21.3828838 C27.7589214,21.6291311 27.8713755,21.9217549 27.9185734,22.2422868 C27.9271921,22.3009758 27.9530484,22.3403753 27.9945004,22.3810061 C28.1287066,22.512338 28.2653752,22.6428491 28.3880897,22.7844413 C28.6109458,23.0413593 28.7890665,23.3261853 28.8883873,23.6553359 C28.9675976,23.9171788 28.9766268,24.1794322 28.8883873,24.4412752 C28.8633519,24.5155598 28.8399581,24.5902548 28.8120498,24.6637185 C28.6737395,25.0302166 28.4246168,25.287545 28.0486754,25.406975 C27.9157005,25.4492474 27.7736964,25.4701784 27.6345653,25.4829012 C27.5516612,25.4902886 27.486405,25.5132717 27.4219696,25.563342 C27.2811968,25.6721012 27.1240073,25.7513108 26.9508116,25.7960457 C26.7222097,25.855145 26.4993536,25.8366765 26.3113829,25.6930322 C26.153783,25.5723711 26.013831,25.4274956 25.8751103,25.2846721 C25.7991833,25.2066938 25.781125,25.1135303 25.8451499,25.0060023 C25.9165624,24.8849307 25.8738791,24.7954608 25.7396729,24.752778 C25.6842667,24.7355407 25.6259876,24.7265116 25.5652459,24.712968 C25.4478669,24.3710947 25.3674253,24.0267589 25.4228315,23.6631337 C25.4634627,23.3967762 25.5923334,23.1948534 25.8406353,23.0774756 C25.8615666,23.0676257 25.881677,23.0565445 25.9120478,23.0405385 C25.8746999,22.883761 25.8426874,22.7269836 25.8000041,22.573079 C25.6633355,22.078122 25.5139439,21.5930148 25.2090045,21.1629028 C24.8059757,20.594482 24.3175802,20.1442599 23.6666598,19.8828273 C23.6243869,19.8660004 23.5804724,19.8540985 23.5246558,19.8352195 C23.5316328,19.8668213 23.5324537,19.8820065 23.5381995,19.8951397 C23.636289,20.108554 23.7310952,20.32361 23.835341,20.533741 C23.8689951,20.6010486 23.9010076,20.6654833 23.9104471,20.7409991 C23.9190659,20.8107692 23.9289159,20.8805393 23.940818,20.9503093 C24.0220804,21.4366478 24.0811804,21.9270903 24.1993803,22.4076829 C24.3335864,22.951479 24.4509655,23.4993793 24.5777842,24.044817 C24.639757,24.3119953 24.7017299,24.5787632 24.8232131,24.8282938 C24.8671277,24.9185845 24.8946256,25.0191355 24.9171985,25.1180448 C24.9717839,25.3544422 24.9270485,25.4615598 24.7296382,25.5990478 C24.7201986,25.6060249 24.7111695,25.6142331 24.7004987,25.6187476 C24.6442716,25.6446036 24.6315487,25.6901593 24.6442716,25.745565 C24.6627404,25.8255954 24.6771049,25.9072674 24.7046028,25.9844249 C24.9923047,26.794168 25.3469044,27.574772 25.7404937,28.338549 C25.7995937,28.4534644 25.8582832,28.5687902 25.9087644,28.6873993 C25.9547311,28.7961585 25.9826394,28.9106635 25.9760727,29.0309143 C25.9699165,29.1441881 25.9255915,29.2352995 25.8250395,29.2943989 C25.8069812,29.3050696 25.7889229,29.3165612 25.7544479,29.3379026 C26.0162935,29.4552805 26.2617225,29.5652709 26.5141286,29.6785447 C26.475139,29.7466731 26.4406641,29.8061829 26.4057787,29.8669239 C26.504689,29.9822497 26.5982639,30.0914193 26.6943014,30.2034618 C26.6647514,30.2481968 26.6421785,30.2896484 26.6130389,30.3257646 C26.5761015,30.37091 26.5724077,30.4111304 26.6035994,30.4632527 C26.6618785,30.5609308 26.7140014,30.6623026 26.7673555,30.7624432 C26.7833617,30.7919929 26.7956742,30.8227738 26.8174263,30.8699712 L26.5231577,30.8699712 C26.5313661,30.9910428 26.5371119,31.099802 26.5465515,31.2085612 C26.5510661,31.2590419 26.5416265,31.2972102 26.494839,31.3279911 C26.3179496,31.4445482 26.1435226,31.5647989 25.9678644,31.6825872 C25.9592457,31.688333 25.9457019,31.6862809 25.9313373,31.688333 C25.8697749,31.5725968 25.7671708,31.552897 25.6497917,31.5689031 C25.5114814,31.587782 25.3883565,31.6440085 25.2623587,31.7215764 C25.3013482,31.9239096 25.3362336,32.1241907 25.3780961,32.3228302 C25.4876772,32.842412 25.6518438,33.3435252 25.8693645,33.828222 C25.9510373,34.0100346 26.0815497,34.133979 26.2604913,34.2201656 C26.3392912,34.1643495 26.4258891,34.1676328 26.5178223,34.1865118 C26.7115389,34.2263218 26.7928013,34.309225 26.7952638,34.5045812 C26.7960846,34.5796867 26.8231721,34.6190862 26.8855554,34.6498671 C27.1071802,34.7586264 27.3275738,34.8694376 27.5479674,34.9806593 C27.6103507,35.0122611 27.6673986,35.0192381 27.7379902,34.9942029 C27.9144692,34.9314099 28.0778149,34.9736823 28.224744,35.0844936 C28.2526523,35.105835 28.280971,35.1284077 28.3035439,35.1550845 C28.3367877,35.1940736 28.3729043,35.2059756 28.425848,35.2014611 C28.4911042,35.1961257 28.5600542,35.2022819 28.6236687,35.2174671 C28.7414582,35.2457856 28.8551435,35.2921622 28.9733435,35.3171973 C29.2692537,35.3799904 29.4334202,35.5687799 29.5015493,35.8519643 C29.5224806,35.9389717 29.5315097,36.028852 29.5466951,36.1211947 C29.5668055,36.131455 29.5873263,36.1425361 29.6078472,36.1527964 C29.7547762,36.2258498 29.8298824,36.3448693 29.8356282,36.5086238 C29.8405532,36.6600659 29.8151074,36.804531 29.7551866,36.9440711 M20,-2.84217094e-14 C8.95405389,-2.84217094e-14 0,8.95437243 0,19.9997948 C0,31.0456276 8.95405389,40 20,40 C31.0455357,40 40,31.0456276 40,19.9997948 C40,8.95437243 31.0455357,-2.84217094e-14 20,-2.84217094e-14" id="Fill-1"></path>
            </g>
        </g>
    </g>
</svg>