<?xml version="1.0" standalone="no"?><!DOCTYPE svg PUBLIC "-//W3C//DTD SVG 1.1//EN" "http://www.w3.org/Graphics/SVG/1.1/DTD/svg11.dtd"><svg t="1578166923496" class="icon" viewBox="0 0 1024 1024" version="1.1" xmlns="http://www.w3.org/2000/svg" p-id="6322" xmlns:xlink="http://www.w3.org/1999/xlink" width="200" height="200"><defs><style type="text/css"></style></defs><path d="M395.086755 431.098435l232.463446 0 0 42.464137L395.086755 473.562573 395.086755 431.098435 395.086755 431.098435zM395.086755 431.098435" p-id="6323" fill="#b4b4b4"></path><path d="M511.999488 65.285912c-246.720148 0-446.708971 199.998033-446.708971 446.709995 0 246.709915 199.989847 446.718181 446.708971 446.718181S958.70846 758.705821 958.70846 511.995907C958.70846 265.283945 758.718613 65.285912 511.999488 65.285912L511.999488 65.285912zM258.752694 317.101101l107.280352 0c-8.933463-8.933463-23.854291-22.353101-44.706201-40.229237-7.468089-5.942339-12.668531-10.409071-15.634072-13.409404l53.639664-13.418614c35.753295 28.329209 61.805648 49.949622 78.225619 64.825424l-4.484128 2.233877 46.939055 0 0-73.758887 62.591547 0 0 73.758887 44.706201 0-4.466732-2.233877c25.319665-17.886369 52.139497-39.461757 80.46052-64.825424l53.639664 13.418614c-17.86795 17.877159-38.755676 35.762505-62.574151 53.639664L763.901659 317.102125l0 100.587929-60.35767 0 0-58.124815L316.861136 359.565239l0 58.124815-58.107419 0L258.753717 317.101101 258.752694 317.101101zM361.566314 587.559906l0 93.880157-60.35767 0L301.208645 545.088606l422.454568 0 0 131.884726-58.124815 0 0-89.413426L361.566314 587.559906 361.566314 587.559906zM334.728062 513.801019l0-120.698966 350.929558 0 0 120.698966L334.728062 513.801019 334.728062 513.801019zM739.297284 775.318174c-99.846032-38.774095-175.839821-64.826448-227.978295-78.226642-32.806173 40.22105-113.998357 67.040882-243.630786 80.459496-5.967922-17.886369-13.418614-35.771715-22.353101-53.639664 165.404144-7.484462 245.096161-45.438888 239.164055-113.998357l60.340273 0c-1.50119 16.420995-5.234211 31.28861-11.167341 44.707225 26.819832 7.467065 66.273403 20.100804 118.465089 37.986149 50.638307 14.919804 88.626503 26.052353 113.998357 33.538861L739.297284 775.318174 739.297284 775.318174zM739.297284 775.318174" p-id="6324" fill="#b4b4b4"></path></svg>