<?xml version="1.0" standalone="no"?><!DOCTYPE svg PUBLIC "-//W3C//DTD SVG 1.1//EN" "http://www.w3.org/Graphics/SVG/1.1/DTD/svg11.dtd"><svg t="1578123857512" class="icon" viewBox="0 0 1024 1024" version="1.1" xmlns="http://www.w3.org/2000/svg" p-id="34366" xmlns:xlink="http://www.w3.org/1999/xlink" width="200" height="200"><defs><style type="text/css"></style></defs><path d="M515.2 959.6C265.2 956.1 69.5 763.1 69.6 513 69.6 263.1 265 67.7 515.1 67.6c250.3-0.1 446.3 196.1 445.7 446.7-0.7 249-195.7 441.7-445.6 445.3z m0.1-836.2c-209.8-0.2-389.7 178.9-390.1 388.3-0.3 211.4 178.3 390.9 389.4 391.4 209.8 0.4 390-178.8 390.4-388.1 0.4-211.8-178.4-391.4-389.7-391.6zM684 219.7c-2.5 14-4.9 26.7-7.2 39.4-12.1 65.3-24.1 130.5-36.2 195.8-7.1 38.3-14.1 76.5-21.4 114.8-0.3 1.8-1.5 3.9-3 5.1-66.1 56.6-132.3 113-198.5 169.6-22.7 19.3-45.4 38.8-68.2 58.1l-4 3.2c1.5-8.4 2.8-15.8 4.2-23.2 20.1-108.9 40.3-217.6 60.5-326.4 0.4-2 1.9-4.4 3.6-5.8C465 406.5 516.4 362.7 567.6 319c37.7-32.1 75.4-64.4 113.1-96.7 0.8-0.6 1.4-1.2 3.3-2.6zM428.6 653c0.2 0.1 0.3 0.2 0.5 0.3 38.9-33 77.7-66 116.7-99.2-29.9-17.3-59.5-34.3-89.3-51.5C447.2 553 437.9 603 428.6 653z" p-id="34367" fill="#ea6f5a"></path></svg>